# 3ds Max Wavefront OBJ Exporter v0.99 - (c)2007 guruware
# File Created: 02.04.2026 16:38:23

mtllib Glass.mtl

#
# object Whisky_Glass
#

v  9.0792 0.0000 5.2419
v  5.2419 0.0000 9.0792
v  -0.0000 0.0000 10.4838
v  -5.2419 0.0000 9.0792
v  -9.0792 0.0000 5.2419
v  -10.4838 0.0000 -0.0000
v  -9.0792 0.0000 -5.2419
v  -5.2419 0.0000 -9.0792
v  -0.0000 0.0000 -10.4838
v  5.2419 0.0000 -9.0792
v  9.0792 0.0000 -5.2419
v  10.4838 0.0000 -0.0000
v  9.7076 14.0755 -5.6047
v  11.2094 14.0755 -0.0000
v  5.6047 14.0755 -9.7076
v  -0.0000 14.0755 -11.2094
v  -5.6047 14.0755 -9.7076
v  -9.7076 14.0755 -5.6047
v  -11.2094 14.0755 -0.0000
v  -9.7076 14.0755 5.6047
v  -5.6047 14.0755 9.7076
v  -0.0000 14.0755 11.2094
v  5.6047 14.0755 9.7076
v  9.7076 14.0755 5.6047
v  10.3360 30.0000 -5.9675
v  11.9350 30.0000 -0.0000
v  5.9675 30.0000 -10.3360
v  -0.0000 30.0000 -11.9350
v  -5.9675 30.0000 -10.3360
v  -10.3360 30.0000 -5.9675
v  -11.9350 30.0000 -0.0000
v  -10.3360 30.0000 5.9675
v  -5.9675 30.0000 10.3360
v  -0.0000 30.0000 11.9350
v  5.9675 30.0000 10.3360
v  10.3360 30.0000 5.9675
v  9.4436 30.0000 -5.4522
v  10.9045 30.0000 -0.0000
v  5.4522 30.0000 -9.4436
v  -0.0000 30.0000 -10.9045
v  -5.4522 30.0000 -9.4436
v  -9.4436 30.0000 -5.4522
v  -10.9045 30.0000 -0.0000
v  -9.4436 30.0000 5.4522
v  -5.4523 30.0000 9.4436
v  -0.0000 30.0000 10.9045
v  5.4522 30.0000 9.4436
v  9.4436 30.0000 5.4523
v  7.9002 2.7407 -4.5612
v  9.1224 2.7407 -0.0000
v  4.5612 2.7407 -7.9002
v  -0.0000 2.7407 -9.1224
v  -4.5612 2.7407 -7.9002
v  -7.9002 2.7407 -4.5612
v  -9.1224 2.7407 -0.0000
v  -7.9002 2.7407 4.5612
v  -4.5612 2.7407 7.9002
v  -0.0000 2.7407 9.1224
v  4.5612 2.7407 7.9002
v  7.9002 2.7407 4.5612
# 60 vertices

vn 0.6411 -0.6723 0.3702
vn 0.3702 -0.6723 0.6411
vn -0.0000 -0.6723 0.7403
vn -0.3702 -0.6723 0.6411
vn -0.6411 -0.6723 0.3702
vn -0.7403 -0.6723 -0.0000
vn -0.6411 -0.6723 -0.3702
vn -0.3702 -0.6723 -0.6411
vn -0.0000 -0.6723 -0.7403
vn 0.3702 -0.6723 -0.6411
vn 0.6411 -0.6723 -0.3702
vn 0.7403 -0.6723 -0.0000
vn 0.8650 -0.0485 -0.4994
vn 0.9988 -0.0485 0.0000
vn 0.4994 -0.0485 -0.8650
vn 0.0000 -0.0485 -0.9988
vn -0.4994 -0.0485 -0.8650
vn -0.8650 -0.0485 -0.4994
vn -0.9988 -0.0485 -0.0000
vn -0.8650 -0.0485 0.4994
vn -0.4994 -0.0485 0.8650
vn -0.0000 -0.0485 0.9988
vn 0.4994 -0.0485 0.8650
vn 0.8650 -0.0485 0.4994
vn 0.6682 0.6362 -0.3858
vn 0.7716 0.6362 -0.0000
vn 0.3858 0.6362 -0.6682
vn -0.0000 0.6362 -0.7716
vn -0.3858 0.6362 -0.6682
vn -0.6682 0.6362 -0.3858
vn -0.7716 0.6362 -0.0000
vn -0.6682 0.6362 0.3858
vn -0.3858 0.6362 0.6682
vn -0.0000 0.6362 0.7716
vn 0.3858 0.6362 0.6682
vn 0.6682 0.6362 0.3858
vn -0.5309 0.7901 0.3065
vn -0.6130 0.7901 -0.0000
vn -0.3065 0.7901 0.5309
vn 0.0000 0.7901 0.6130
vn 0.3065 0.7901 0.5309
vn 0.5309 0.7901 0.3065
vn 0.6130 0.7901 -0.0000
vn 0.5309 0.7901 -0.3065
vn 0.3065 0.7901 -0.5309
vn 0.0000 0.7901 -0.6130
vn -0.3065 0.7901 -0.5309
vn -0.5309 0.7901 -0.3065
vn -0.6371 0.6773 0.3678
vn -0.7357 0.6773 -0.0000
vn -0.3678 0.6773 0.6371
vn 0.0000 0.6773 0.7357
vn 0.3678 0.6773 0.6371
vn 0.6371 0.6773 0.3678
vn 0.7357 0.6773 0.0000
vn 0.6371 0.6773 -0.3678
vn 0.3679 0.6773 -0.6371
vn 0.0000 0.6773 -0.7357
vn -0.3678 0.6773 -0.6371
vn -0.6371 0.6773 -0.3679
# 60 vertex normals

vt 0.9653 0.7557 0.0000
vt 0.9668 0.8395 0.0000
vt 0.9261 0.9127 0.0000
vt 0.8543 0.9559 0.0000
vt 0.7705 0.9574 0.0000
vt 0.6972 0.9167 0.0000
vt 0.6541 0.8449 0.0000
vt 0.6526 0.7611 0.0000
vt 0.6932 0.6878 0.0000
vt 0.7651 0.6447 0.0000
vt 0.8488 0.6432 0.0000
vt 0.9221 0.6838 0.0000
vt 0.9159 0.2707 0.0000
vt 0.8304 0.2707 0.0000
vt 0.8304 0.1469 0.0000
vt 0.9159 0.1469 0.0000
vt 0.7467 0.2707 0.0000
vt 0.7467 0.1469 0.0000
vt 0.6643 0.2707 0.0000
vt 0.6643 0.1469 0.0000
vt 0.5801 0.2707 0.0000
vt 0.5801 0.1469 0.0000
vt 0.4963 0.2707 0.0000
vt 0.4963 0.1469 0.0000
vt 0.4139 0.2707 0.0000
vt 0.4139 0.1469 0.0000
vt 0.3297 0.2707 0.0000
vt 0.3297 0.1469 0.0000
vt 0.2459 0.2707 0.0000
vt 0.2459 0.1469 0.0000
vt 0.1635 0.2707 0.0000
vt 0.1635 0.1469 0.0000
vt 0.0795 0.2707 0.0000
vt 0.0795 0.1469 0.0000
vt 0.0000 0.2707 0.0000
vt 0.0000 0.1469 0.0000
vt 1.0000 0.2707 0.0000
vt 1.0000 0.1469 0.0000
vt 0.8304 0.0122 0.0000
vt 0.9159 0.0122 0.0000
vt 0.7467 0.0122 0.0000
vt 0.6643 0.0122 0.0000
vt 0.5801 0.0122 0.0000
vt 0.4963 0.0122 0.0000
vt 0.4139 0.0122 0.0000
vt 0.3297 0.0122 0.0000
vt 0.2459 0.0122 0.0000
vt 0.1635 0.0122 0.0000
vt 0.0795 0.0122 0.0000
vt 0.0000 0.0122 0.0000
vt 1.0000 0.0122 0.0000
vt 0.7549 0.9776 0.0000
vt 0.6731 0.9285 0.0000
vt 0.6846 0.9174 0.0000
vt 0.7593 0.9623 0.0000
vt 0.6269 0.8451 0.0000
vt 0.6423 0.8412 0.0000
vt 0.6285 0.7497 0.0000
vt 0.6438 0.7541 0.0000
vt 0.6777 0.6679 0.0000
vt 0.6887 0.6793 0.0000
vt 0.7611 0.6216 0.0000
vt 0.7650 0.6371 0.0000
vt 0.8565 0.6233 0.0000
vt 0.8521 0.6386 0.0000
vt 0.9383 0.6724 0.0000
vt 0.9268 0.6835 0.0000
vt 0.9845 0.7559 0.0000
vt 0.9691 0.7597 0.0000
vt 0.9829 0.8513 0.0000
vt 0.9676 0.8469 0.0000
vt 0.9337 0.9330 0.0000
vt 0.9227 0.9216 0.0000
vt 0.8503 0.9793 0.0000
vt 0.8464 0.9639 0.0000
vt 0.5870 0.5285 0.0000
vt 0.5043 0.5285 0.0000
vt 0.5043 0.2899 0.0000
vt 0.5870 0.2899 0.0000
vt 0.4203 0.5285 0.0000
vt 0.4203 0.2899 0.0000
vt 0.3361 0.5285 0.0000
vt 0.3361 0.2899 0.0000
vt 0.2534 0.5285 0.0000
vt 0.2534 0.2899 0.0000
vt 0.1694 0.5285 0.0000
vt 0.1694 0.2899 0.0000
vt 0.0852 0.5285 0.0000
vt 0.0852 0.2899 0.0000
vt 0.0000 0.5285 0.0000
vt 0.0000 0.2899 0.0000
vt 1.0000 0.5285 0.0000
vt 0.9221 0.5285 0.0000
vt 0.9221 0.2899 0.0000
vt 1.0000 0.2899 0.0000
vt 0.8379 0.5285 0.0000
vt 0.8379 0.2899 0.0000
vt 0.7552 0.5285 0.0000
vt 0.7552 0.2899 0.0000
vt 0.6712 0.5285 0.0000
vt 0.6712 0.2899 0.0000
vt 0.5647 0.9090 0.0000
vt 0.5009 0.9443 0.0000
vt 0.4280 0.9431 0.0000
vt 0.3655 0.9055 0.0000
vt 0.3302 0.8417 0.0000
vt 0.3315 0.7688 0.0000
vt 0.3690 0.7063 0.0000
vt 0.4328 0.6710 0.0000
vt 0.5057 0.6723 0.0000
vt 0.5682 0.7098 0.0000
vt 0.6035 0.7736 0.0000
vt 0.6023 0.8465 0.0000
# 113 texture coords

o Whisky_Glass
g Whisky_Glass
usemtl wire_115132022
s 1
f 1/1/1 2/2/2 3/3/3 4/4/4 5/5/5 6/6/6 7/7/7 8/8/8 9/9/9 10/10/10 11/11/11 12/12/12 
s 8
f 12/13/12 11/14/11 13/15/13 14/16/14 
f 11/14/11 10/17/10 15/18/15 13/15/13 
f 10/17/10 9/19/9 16/20/16 15/18/15 
f 9/19/9 8/21/8 17/22/17 16/20/16 
f 8/21/8 7/23/7 18/24/18 17/22/17 
f 7/23/7 6/25/6 19/26/19 18/24/18 
f 6/25/6 5/27/5 20/28/20 19/26/19 
f 5/27/5 4/29/4 21/30/21 20/28/20 
f 4/29/4 3/31/3 22/32/22 21/30/21 
f 3/31/3 2/33/2 23/34/23 22/32/22 
f 2/33/2 1/35/1 24/36/24 23/34/23 
f 1/37/1 12/13/12 14/16/14 24/38/24 
f 13/15/13 25/39/25 26/40/26 14/16/14 
f 15/18/15 27/41/27 25/39/25 13/15/13 
f 16/20/16 28/42/28 27/41/27 15/18/15 
f 17/22/17 29/43/29 28/42/28 16/20/16 
f 18/24/18 30/44/30 29/43/29 17/22/17 
f 19/26/19 31/45/31 30/44/30 18/24/18 
f 20/28/20 32/46/32 31/45/31 19/26/19 
f 21/30/21 33/47/33 32/46/32 20/28/20 
f 22/32/22 34/48/34 33/47/33 21/30/21 
f 23/34/23 35/49/35 34/48/34 22/32/22 
f 24/36/24 36/50/36 35/49/35 23/34/23 
f 14/16/14 26/40/26 36/51/36 24/38/24 
s off
f 26/52/26 25/53/25 37/54/37 38/55/38 
f 25/53/25 27/56/27 39/57/39 37/54/37 
f 27/56/27 28/58/28 40/59/40 39/57/39 
f 28/58/28 29/60/29 41/61/41 40/59/40 
f 29/60/29 30/62/30 42/63/42 41/61/41 
f 30/62/30 31/64/31 43/65/43 42/63/42 
f 31/64/31 32/66/32 44/67/44 43/65/43 
f 32/66/32 33/68/33 45/69/45 44/67/44 
f 33/68/33 34/70/34 46/71/46 45/69/45 
f 34/70/34 35/72/35 47/73/47 46/71/46 
f 35/72/35 36/74/36 48/75/48 47/73/47 
f 36/74/36 26/52/26 38/55/38 48/75/48 
f 38/76/38 37/77/37 49/78/49 50/79/50 
f 37/77/37 39/80/39 51/81/51 49/78/49 
f 39/80/39 40/82/40 52/83/52 51/81/51 
f 40/82/40 41/84/41 53/85/53 52/83/52 
f 41/84/41 42/86/42 54/87/54 53/85/53 
f 42/86/42 43/88/43 55/89/55 54/87/54 
f 43/88/43 44/90/44 56/91/56 55/89/55 
f 44/92/44 45/93/45 57/94/57 56/95/56 
f 45/93/45 46/96/46 58/97/58 57/94/57 
f 46/96/46 47/98/47 59/99/59 58/97/58 
f 47/98/47 48/100/48 60/101/60 59/99/59 
f 48/100/48 38/76/38 50/79/50 60/101/60 
s 2
f 49/102/49 51/103/51 52/104/52 53/105/53 54/106/54 55/107/55 56/108/56 57/109/57 58/110/58 59/111/59 60/112/60 50/113/50 
# 50 polygons

