# 3ds Max Wavefront OBJ Exporter v0.99 - (c)2007 guruware
# File Created: 20.03.2026 17:25:57

mtllib ??\???\Hat.mtl

#
# object Hat
#

v  17.3205 0.0000 10.0000
v  10.0000 0.0000 17.3205
v  -0.0000 0.0000 20.0000
v  -10.0000 0.0000 17.3205
v  -17.3205 0.0000 10.0000
v  -20.0000 0.0000 -0.0000
v  -17.3205 0.0000 -10.0000
v  -10.0000 0.0000 -17.3205
v  -0.0000 0.0000 -20.0000
v  10.0000 0.0000 -17.3205
v  17.3205 0.0000 -10.0000
v  20.0000 0.0000 -0.0000
v  39.9533 0.0000 0.0000
v  34.6008 0.0000 -19.9764
v  34.6008 3.1285 -19.9764
v  39.9533 3.1285 0.0000
v  19.9764 0.0000 -34.6008
v  19.9764 3.1285 -34.6008
v  -0.0000 0.0000 -39.9533
v  -0.0000 3.1285 -39.9533
v  -19.9763 0.0000 -34.6007
v  -19.9763 3.1285 -34.6007
v  -34.6007 0.0000 -19.9763
v  -34.6007 3.1285 -19.9763
v  -39.9532 0.0000 -0.0003
v  -39.9532 3.1285 -0.0003
v  -34.6005 0.0000 19.9770
v  -34.6003 3.1285 19.9769
v  -19.9767 0.0000 34.6006
v  -19.9767 3.1285 34.6006
v  -0.0000 0.0000 39.9533
v  -0.0000 3.1285 39.9533
v  19.9764 0.0000 34.6008
v  19.9764 3.1285 34.6008
v  34.6007 0.0000 19.9764
v  34.6007 3.1285 19.9764
v  22.6400 50.7054 8.5595
v  24.5106 51.3795 -1.6005
v  21.0395 52.0392 -11.3317
v  13.1566 52.5078 -18.0265
v  2.9743 52.6597 -19.8912
v  -6.7791 52.4543 -16.4260
v  -13.4903 51.9465 -8.5595
v  -15.3609 51.2724 1.6005
v  -11.8898 50.6127 11.3317
v  -4.0070 50.1441 18.0265
v  6.1753 49.9922 19.8912
v  15.9288 50.1976 16.4260
v  17.3205 3.1285 -10.0000
v  17.3205 20.0809 -9.9619
v  20.0000 20.9525 0.0000
v  20.0000 3.1285 -0.0000
v  10.0000 3.1285 -17.3205
v  10.0000 19.4429 -17.2546
v  -0.0000 3.1285 -20.0000
v  -0.0000 19.2093 -19.9239
v  -10.0000 3.1285 -17.3205
v  -10.0000 19.4429 -17.2546
v  -17.3205 3.1285 -10.0000
v  -17.3205 20.0809 -9.9619
v  -20.0000 3.1285 -0.0000
v  -20.0000 20.9525 -0.0000
v  -17.3205 3.1285 10.0000
v  -17.3205 21.8240 9.9619
v  -10.0000 3.1285 17.3205
v  -10.0000 22.4620 17.2546
v  -0.0000 3.1285 20.0000
v  -0.0000 22.6956 19.9239
v  10.0000 3.1285 17.3205
v  10.0000 22.4620 17.2546
v  17.3205 3.1285 10.0000
v  17.3205 21.8240 9.9620
# 72 vertices

vn 0.0000 -1.0000 -0.0000
vn 0.7571 -0.6533 -0.0000
vn 0.6557 -0.6533 -0.3785
vn 0.6557 0.6533 -0.3785
vn 0.7571 0.6533 -0.0000
vn 0.3785 -0.6533 -0.6557
vn 0.3785 0.6533 -0.6557
vn 0.0000 -0.6533 -0.7571
vn 0.0000 0.6533 -0.7571
vn -0.3786 -0.6533 -0.6557
vn -0.3786 0.6533 -0.6557
vn -0.6557 -0.6532 -0.3786
vn -0.6557 0.6532 -0.3786
vn -0.7572 -0.6532 -0.0000
vn -0.7571 0.6533 -0.0000
vn -0.6557 -0.6532 0.3786
vn -0.6558 0.6532 0.3786
vn -0.3786 -0.6532 0.6558
vn -0.3786 0.6532 0.6557
vn 0.0000 -0.6533 0.7571
vn 0.0000 0.6533 0.7571
vn 0.3786 -0.6532 0.6557
vn 0.3786 0.6532 0.6557
vn 0.6557 -0.6533 0.3786
vn 0.6557 0.6533 0.3786
vn 0.7284 0.5832 0.3596
vn 0.8023 0.5956 -0.0382
vn 0.6619 0.6217 -0.4187
vn 0.3477 0.6528 -0.6731
vn -0.0490 0.6811 -0.7306
vn -0.4144 0.7012 -0.5802
vn -0.6498 0.7096 -0.2724
vn -0.7024 0.7042 0.1035
vn -0.5703 0.6845 0.4542
vn -0.2865 0.6529 0.7012
vn 0.0890 0.6174 0.7816
vn 0.4634 0.5908 0.6605
vn 0.5518 0.7706 -0.3188
vn 0.8651 -0.0603 -0.4980
vn 0.9972 -0.0742 0.0107
vn 0.6377 0.7703 0.0000
vn 0.3180 0.7714 -0.5513
vn 0.4947 -0.0313 -0.8685
vn -0.0000 0.7717 -0.6359
vn -0.0070 0.0035 -1.0000
vn -0.3180 0.7714 -0.5513
vn -0.5021 0.0363 -0.8640
vn -0.5518 0.7706 -0.3188
vn -0.8624 0.0619 -0.5024
vn -0.6378 0.7702 0.0000
vn -0.9971 0.0758 -0.0101
vn -0.5519 0.7706 0.3188
vn -0.8709 0.0723 0.4861
vn -0.3182 0.7712 0.5514
vn -0.5141 0.0478 0.8564
vn -0.0000 0.7715 0.6363
vn -0.0189 0.0068 0.9998
vn 0.3182 0.7712 0.5514
vn 0.4824 -0.0366 0.8752
vn 0.5519 0.7706 0.3188
vn 0.8552 -0.0664 0.5141
# 61 vertex normals

vt 0.1625 0.8321 0.0000
vt 0.1295 0.7770 0.0000
vt 0.1284 0.7128 0.0000
vt 0.1595 0.6567 0.0000
vt 0.2145 0.6236 0.0000
vt 0.2787 0.6225 0.0000
vt 0.3348 0.6536 0.0000
vt 0.3679 0.7087 0.0000
vt 0.3690 0.7728 0.0000
vt 0.3379 0.8290 0.0000
vt 0.2829 0.8621 0.0000
vt 0.2187 0.8632 0.0000
vt 0.8415 0.0143 0.0000
vt 0.7500 0.0143 0.0000
vt 0.7500 0.0000 0.0000
vt 0.8415 0.0000 0.0000
vt 0.6830 0.0143 0.0000
vt 0.6830 0.0000 0.0000
vt 0.5915 0.0143 0.0000
vt 0.5915 0.0000 0.0000
vt 0.5000 0.0143 0.0000
vt 0.5000 0.0000 0.0000
vt 0.4330 0.0143 0.0000
vt 0.4330 0.0000 0.0000
vt 0.3415 0.0143 0.0000
vt 0.3415 0.0000 0.0000
vt 0.2500 0.0143 0.0000
vt 0.2500 0.0000 0.0000
vt 0.1830 0.0143 0.0000
vt 0.1830 0.0000 0.0000
vt 0.0915 0.0143 0.0000
vt 0.0915 0.0000 0.0000
vt 0.0000 0.0143 0.0000
vt 0.0000 0.0000 0.0000
vt 1.0000 0.0143 0.0000
vt 0.9330 0.0143 0.0000
vt 0.9330 0.0000 0.0000
vt 1.0000 0.0000 0.0000
vt 0.7114 0.6326 0.0000
vt 0.7716 0.6321 0.0000
vt 0.8238 0.6619 0.0000
vt 0.8543 0.7138 0.0000
vt 0.8546 0.7741 0.0000
vt 0.8249 0.8265 0.0000
vt 0.7730 0.8570 0.0000
vt 0.7129 0.8575 0.0000
vt 0.6606 0.8277 0.0000
vt 0.6302 0.7758 0.0000
vt 0.6298 0.7155 0.0000
vt 0.6595 0.6631 0.0000
vt 0.0000 0.4195 0.0000
vt 0.0000 0.2664 0.0000
vt 0.0896 0.2664 0.0000
vt 0.0896 0.4195 0.0000
vt 0.9287 0.4195 0.0000
vt 0.9287 0.2664 0.0000
vt 1.0000 0.2664 0.0000
vt 1.0000 0.4195 0.0000
vt 0.8496 0.4195 0.0000
vt 0.8496 0.2664 0.0000
vt 0.7514 0.4195 0.0000
vt 0.7514 0.2664 0.0000
vt 0.6616 0.4195 0.0000
vt 0.6616 0.2664 0.0000
vt 0.5826 0.4195 0.0000
vt 0.5826 0.2664 0.0000
vt 0.4786 0.4195 0.0000
vt 0.4786 0.2664 0.0000
vt 0.3945 0.4195 0.0000
vt 0.3945 0.2664 0.0000
vt 0.3155 0.4195 0.0000
vt 0.3155 0.2664 0.0000
vt 0.2372 0.4195 0.0000
vt 0.2372 0.2664 0.0000
vt 0.1686 0.4195 0.0000
vt 0.1686 0.2664 0.0000
vt 0.3170 0.9810 0.0000
vt 0.1888 0.9832 0.0000
vt 0.4269 0.9149 0.0000
vt 0.4891 0.8028 0.0000
vt 0.4868 0.6746 0.0000
vt 0.4208 0.5646 0.0000
vt 0.3086 0.5024 0.0000
vt 0.1804 0.5047 0.0000
vt 0.0705 0.5707 0.0000
vt 0.0083 0.6829 0.0000
vt 0.0105 0.8111 0.0000
vt 0.0766 0.9211 0.0000
vt 0.7067 0.6207 0.0000
vt 0.6497 0.6550 0.0000
vt 0.5573 0.5659 0.0000
vt 0.6714 0.4974 0.0000
vt 0.6174 0.7133 0.0000
vt 0.4928 0.6822 0.0000
vt 0.6185 0.7799 0.0000
vt 0.4951 0.8153 0.0000
vt 0.6528 0.8370 0.0000
vt 0.5637 0.9293 0.0000
vt 0.7111 0.8692 0.0000
vt 0.6800 0.9938 0.0000
vt 0.7777 0.8681 0.0000
vt 0.8131 0.9915 0.0000
vt 0.8348 0.8338 0.0000
vt 0.9271 0.9230 0.0000
vt 0.8670 0.7755 0.0000
vt 0.9916 0.8066 0.0000
vt 0.8659 0.7089 0.0000
vt 0.9893 0.6736 0.0000
vt 0.8316 0.6519 0.0000
vt 0.9207 0.5595 0.0000
vt 0.7733 0.6196 0.0000
vt 0.8044 0.4950 0.0000
vt 0.0000 0.0222 0.0000
vt 0.0896 0.0222 0.0000
vt 0.9287 0.0222 0.0000
vt 1.0000 0.0222 0.0000
vt 0.8496 0.0222 0.0000
vt 0.7514 0.0222 0.0000
vt 0.6616 0.0222 0.0000
vt 0.5826 0.0222 0.0000
vt 0.4786 0.0222 0.0000
vt 0.3945 0.0222 0.0000
vt 0.3155 0.0222 0.0000
vt 0.2372 0.0222 0.0000
vt 0.1686 0.0222 0.0000
# 125 texture coords

o Hat
g Hat
usemtl wire_198158155
s 1
f 1/1/1 2/2/1 3/3/1 4/4/1 5/5/1 6/6/1 7/7/1 8/8/1 9/9/1 10/10/1 11/11/1 12/12/1 
s 8
f 13/13/2 14/14/3 15/15/4 16/16/5 
f 14/14/3 17/17/6 18/18/7 15/15/4 
f 17/17/6 19/19/8 20/20/9 18/18/7 
f 19/19/8 21/21/10 22/22/11 20/20/9 
f 21/21/10 23/23/12 24/24/13 22/22/11 
f 23/23/12 25/25/14 26/26/15 24/24/13 
f 25/25/14 27/27/16 28/28/17 26/26/15 
f 27/27/16 29/29/18 30/30/19 28/28/17 
f 29/29/18 31/31/20 32/32/21 30/30/19 
f 31/31/20 33/33/22 34/34/23 32/32/21 
f 33/35/22 35/36/24 36/37/25 34/38/23 
f 35/36/24 13/13/2 16/16/5 36/37/25 
s 1
f 37/39/26 38/40/27 39/41/28 40/42/29 41/43/30 42/44/31 43/45/32 44/46/33 45/47/34 46/48/35 47/49/36 48/50/37 
s 8
f 49/51/38 50/52/39 51/53/40 52/54/41 
f 53/55/42 54/56/43 50/57/39 49/58/38 
f 55/59/44 56/60/45 54/56/43 53/55/42 
f 57/61/46 58/62/47 56/60/45 55/59/44 
f 59/63/48 60/64/49 58/62/47 57/61/46 
f 61/65/50 62/66/51 60/64/49 59/63/48 
f 63/67/52 64/68/53 62/66/51 61/65/50 
f 65/69/54 66/70/55 64/68/53 63/67/52 
f 67/71/56 68/72/57 66/70/55 65/69/54 
f 69/73/58 70/74/59 68/72/57 67/71/56 
f 71/75/60 72/76/61 70/74/59 69/73/58 
f 52/54/41 51/53/40 72/76/61 71/75/60 
s off
f 12/12/1 11/11/1 14/77/3 13/78/2 
f 11/11/1 10/10/1 17/79/6 14/77/3 
f 10/10/1 9/9/1 19/80/8 17/79/6 
f 9/9/1 8/8/1 21/81/10 19/80/8 
f 8/8/1 7/7/1 23/82/12 21/81/10 
f 7/7/1 6/6/1 25/83/14 23/82/12 
f 6/6/1 5/5/1 27/84/16 25/83/14 
f 5/5/1 4/4/1 29/85/18 27/84/16 
f 4/4/1 3/3/1 31/86/20 29/85/18 
f 3/3/1 2/2/1 33/87/22 31/86/20 
f 2/2/1 1/1/1 35/88/24 33/87/22 
f 1/1/1 12/12/1 13/78/2 35/88/24 
f 49/89/38 52/90/41 16/91/5 15/92/4 
f 52/90/41 71/93/60 36/94/25 16/91/5 
f 71/93/60 69/95/58 34/96/23 36/94/25 
f 69/95/58 67/97/56 32/98/21 34/96/23 
f 67/97/56 65/99/54 30/100/19 32/98/21 
f 65/99/54 63/101/52 28/102/17 30/100/19 
f 63/101/52 61/103/50 26/104/15 28/102/17 
f 61/103/50 59/105/48 24/106/13 26/104/15 
f 59/105/48 57/107/46 22/108/11 24/106/13 
f 57/107/46 55/109/44 20/110/9 22/108/11 
f 55/109/44 53/111/42 18/112/7 20/110/9 
f 53/111/42 49/89/38 15/92/4 18/112/7 
s 8
f 50/52/39 39/113/28 38/114/27 51/53/40 
f 54/56/43 40/115/29 39/116/28 50/57/39 
f 56/60/45 41/117/30 40/115/29 54/56/43 
f 58/62/47 42/118/31 41/117/30 56/60/45 
f 60/64/49 43/119/32 42/118/31 58/62/47 
f 62/66/51 44/120/33 43/119/32 60/64/49 
f 64/68/53 45/121/34 44/120/33 62/66/51 
f 66/70/55 46/122/35 45/121/34 64/68/53 
f 68/72/57 47/123/36 46/122/35 66/70/55 
f 70/74/59 48/124/37 47/123/36 68/72/57 
f 72/76/61 37/125/26 48/124/37 70/74/59 
f 51/53/40 38/114/27 37/125/26 72/76/61 
# 62 polygons

