# 3ds Max Wavefront OBJ Exporter v0.99 - (c)2007 guruware
# File Created: 13.03.2026 01:18:53

mtllib line.mtl

#
# object Plane002
#

v  -20.0247 52.1834 -28.2673
v  -17.0452 51.1049 -28.2673
v  -14.1860 59.0114 -26.8108
v  -17.2706 59.0114 -26.8108
v  -12.1810 64.7845 -26.7504
v  -15.2657 64.7845 -26.7504
v  -11.0379 70.8099 -27.4476
v  -14.1225 70.8099 -27.4476
v  -10.6452 76.5428 -28.2062
v  -13.7181 76.1796 -28.2062
v  -10.3047 82.9159 -31.5428
v  -13.2842 81.8374 -31.5428
v  -11.2493 88.3763 -33.8430
v  -14.1479 86.9511 -33.8430
v  -13.0821 94.2024 -35.2896
v  -15.7534 92.1189 -35.2896
v  -12.8989 99.9560 -38.4874
v  -15.9366 100.6796 -38.4874
v  -9.7876 104.5132 -38.4874
v  -11.9687 107.4598 -38.4874
v  -4.6696 109.2933 -38.8872
v  -6.8192 112.1729 -38.0876
v  -21.4556 44.8732 -28.2673
v  -18.3710 44.8732 -28.2673
# 24 vertices

vn -0.0227 -0.0845 0.9962
vn -0.0230 -0.0857 0.9961
vn 0.0000 -0.0719 0.9974
vn 0.0000 -0.1390 0.9903
vn -0.0000 0.0670 0.9978
vn -0.0000 0.0394 0.9992
vn 0.0000 0.1240 0.9923
vn 0.0000 0.1261 0.9920
vn -0.0281 0.3211 0.9466
vn -0.0273 0.3115 0.9498
vn -0.1104 0.4120 0.9045
vn -0.1229 0.4585 0.8801
vn -0.1033 0.2837 0.9533
vn -0.1128 0.3100 0.9440
vn -0.2108 0.3651 0.9068
vn -0.1538 0.2663 0.9515
vn 0.0386 0.2190 0.9750
vn 0.0353 0.2004 0.9791
vn 0.0178 0.0178 0.9997
vn -0.0167 -0.0167 0.9997
vn 0.1444 -0.1268 0.9814
vn 0.0759 -0.1950 0.9779
vn 0.0000 -0.0000 1.0000
# 23 vertex normals

vt 0.0560 0.8975 0.0000
vt 0.0000 0.8975 0.0000
vt 0.0000 0.8022 0.0000
vt 0.0560 0.8022 0.0000
vt 0.0000 0.6993 0.0000
vt 0.0560 0.6993 0.0000
vt 0.0000 0.6139 0.0000
vt 0.0560 0.6139 0.0000
vt 0.0000 0.5351 0.0000
vt 0.0560 0.5351 0.0000
vt 0.0000 0.4575 0.0000
vt 0.0560 0.4575 0.0000
vt 0.0000 0.3787 0.0000
vt 0.0560 0.3787 0.0000
vt 0.0000 0.3026 0.0000
vt 0.0560 0.3026 0.0000
vt 0.0000 0.2016 0.0000
vt 0.0560 0.2016 0.0000
vt 0.0000 0.1040 0.0000
vt 0.0560 0.1040 0.0000
vt 0.0000 0.0000 0.0000
vt 0.0560 0.0000 0.0000
vt 0.0560 1.0000 0.0000
vt 0.0000 1.0000 0.0000
# 24 texture coords

o Plane002
g Plane002
usemtl wire_139215199
s 1
f 1/1/1 2/2/2 3/3/3 4/4/4 
s off
f 3/3/3 5/5/5 6/6/6 4/4/4 
f 6/6/6 5/5/5 7/7/7 8/8/8 
f 8/8/8 7/7/7 9/9/9 10/10/10 
f 10/10/10 9/9/9 11/11/11 12/12/12 
f 12/12/12 11/11/11 13/13/13 14/14/14 
f 14/14/14 13/13/13 15/15/15 16/16/16 
f 16/16/16 15/15/15 17/17/17 18/18/18 
f 18/18/18 17/17/17 19/19/19 20/20/20 
f 20/20/20 19/19/19 21/21/21 22/22/22 
f 2/2/2 1/1/1 23/23/23 24/24/23 
# 11 polygons

