# 3ds Max Wavefront OBJ Exporter v0.99 - (c)2007 guruware
# File Created: 11.03.2026 05:15:26

mtllib ??\???\??\111.mtl

#
# object Plane001
#

v  -36.4343 112.2345 58.5039
v  -36.4343 112.2344 -58.4868
v  0.0000 112.2344 -58.4868
v  36.4343 112.2344 -58.4868
v  36.4343 112.2345 58.5039
v  -50.0000 109.9949 78.3811
v  -50.0000 109.9949 -61.9910
v  -40.0000 109.9949 -61.9914
v  -40.0000 109.9949 62.0086
v  -48.4494 31.8514 -76.8134
v  -41.5506 31.8514 -76.8134
v  -41.5506 31.8514 -68.3332
v  48.4494 31.8514 -76.8134
v  48.4494 31.8514 -68.3329
v  41.5506 31.8514 -68.3332
v  50.0000 109.9949 78.3811
v  40.0000 109.9949 62.0086
v  -38.8774 109.9949 60.9470
v  -38.8774 109.9949 -60.9298
v  -38.8774 122.2104 -60.9298
v  -38.8774 122.2104 60.9470
v  0.0000 109.9949 -60.9298
v  0.0000 122.2104 -60.9298
v  38.8774 109.9949 -60.9298
v  38.8774 109.9949 60.9470
v  38.8774 122.2104 60.9470
v  38.8774 122.2104 -60.9298
v  -36.4343 122.2104 -58.4868
v  -36.4343 122.2104 58.5039
v  0.0000 122.2104 -58.4868
v  36.4343 122.2104 58.5039
v  36.4343 122.2104 -58.4868
v  40.0000 109.3670 62.0086
v  38.8774 109.3670 60.9470
v  38.8774 109.3670 -60.9298
v  40.0000 109.3670 -61.9914
v  -40.0000 109.3670 62.0086
v  -38.8774 109.3670 60.9470
v  0.0000 109.3670 -60.9298
v  0.0000 109.3670 -61.9914
v  -40.0000 109.3670 -61.9914
v  -38.8774 109.3670 -60.9298
v  40.0000 109.9949 -61.9914
v  0.0000 109.9949 -61.9914
v  0.0000 109.9949 -78.3640
v  40.0000 109.9949 -78.3640
v  50.0000 109.9949 -61.9910
v  -48.4494 31.8514 -68.3329
v  41.5506 31.8514 -76.8134
v  -40.0000 109.9949 -78.3640
v  -50.0000 109.9949 -78.3640
v  -41.5506 109.9949 -76.8134
v  -48.4494 109.9949 -76.8134
v  -41.5506 109.9949 -68.3332
v  -48.4494 109.9949 -68.3329
v  50.0000 109.9949 -78.3640
v  48.4494 109.9949 -68.3329
v  48.4494 109.9949 -76.8134
v  41.5506 109.9949 -68.3332
v  41.5506 109.9949 -76.8134
v  -41.5506 102.6502 -76.8134
v  -48.4494 102.6502 -76.8134
v  -41.5506 102.6502 -68.3332
v  -48.4494 102.6502 -68.3329
v  48.4494 102.6502 -68.3329
v  48.4494 102.6502 -76.8134
v  41.5506 102.6502 -68.3332
v  41.5506 102.6502 -76.8134
v  -40.7584 102.6502 -77.6056
v  -40.7584 100.3310 -77.6056
v  -49.2416 100.3310 -77.6056
v  -49.2416 102.6502 -77.6056
v  -40.7584 102.6502 -67.5410
v  -40.7584 100.3310 -67.5410
v  -49.2416 102.6502 -67.5407
v  -49.2416 100.3310 -67.5407
v  49.2416 102.6502 -67.5407
v  49.2416 100.3310 -67.5407
v  49.2416 100.3310 -77.6056
v  49.2416 102.6502 -77.6056
v  40.7584 102.6502 -67.5410
v  40.7584 100.3310 -67.5410
v  40.7584 102.6502 -77.6056
v  40.7584 100.3310 -77.6056
v  -41.5506 100.3310 -76.8134
v  -48.4494 100.3310 -76.8134
v  -41.5506 100.3310 -68.3332
v  -48.4494 100.3310 -68.3329
v  48.4494 100.3310 -68.3329
v  48.4494 100.3310 -76.8134
v  41.5506 100.3310 -68.3332
v  41.5506 100.3310 -76.8134
# 92 vertices

vn -0.5774 -0.5773 0.5774
vn -0.5774 -0.5774 -0.5774
vn 0.0000 -0.7071 -0.7071
vn 0.5774 -0.5774 -0.5774
vn 0.5774 -0.5773 0.5774
vn 0.0000 -1.0000 0.0000
vn 0.0000 -1.0000 -0.0000
vn -0.3015 -0.9045 -0.3015
vn -0.3015 -0.9045 0.3015
vn 0.5774 -0.5774 0.5773
vn 0.5773 -0.5774 0.5774
vn -0.5774 -0.5774 0.5773
vn -0.0000 -1.0000 0.0000
vn 0.3015 -0.9045 0.3015
vn 0.7071 -0.0000 -0.7071
vn 0.7071 0.0000 0.7071
vn 0.5774 -0.5774 0.5774
vn 0.0000 0.0000 1.0000
vn 0.0000 -0.7071 0.7071
vn -0.7071 0.0000 0.7071
vn -0.7071 -0.0000 -0.7071
vn -0.5774 -0.5774 0.5774
vn 0.3015 -0.9045 -0.3015
vn -0.0000 -1.0000 -0.0000
vn -0.5773 -0.5774 0.5774
vn 0.3015 0.9045 -0.3015
vn -0.3015 0.9045 -0.3015
vn 0.3015 0.9045 0.3015
vn -0.3015 0.9045 0.3015
vn 0.5774 0.5774 -0.5774
vn -0.5774 0.5774 -0.5774
vn 0.5774 0.5774 0.5773
vn -0.5773 0.5774 0.5774
vn -0.5773 -0.5773 0.5774
vn 0.5773 0.5774 0.5774
vn 0.5773 -0.5773 0.5774
vn 0.5774 -0.5774 -0.5773
vn -0.5774 0.5774 0.5773
# 38 vertex normals

vt 0.0549 0.6237 0.0000
vt 0.0549 0.0996 0.0000
vt 0.2181 0.0996 0.0000
vt 0.3813 0.0996 0.0000
vt 0.3813 0.6237 0.0000
vt 0.0010 0.7031 0.0000
vt 0.0010 0.0743 0.0000
vt 0.0458 0.0743 0.0000
vt 0.0458 0.6298 0.0000
vt 0.3605 0.7744 0.0000
vt 0.3914 0.7744 0.0000
vt 0.3914 0.8124 0.0000
vt 0.4349 0.7363 0.0000
vt 0.4349 0.7743 0.0000
vt 0.4040 0.7743 0.0000
vt 0.4489 0.7031 0.0000
vt 0.4042 0.6298 0.0000
vt 0.6664 0.5705 0.0000
vt 0.6654 0.0279 0.0000
vt 0.7199 0.0277 0.0000
vt 0.7209 0.5704 0.0000
vt 0.8221 0.9702 0.0000
vt 0.6479 0.9702 0.0000
vt 0.6479 0.9155 0.0000
vt 0.8221 0.9155 0.0000
vt 0.6458 0.0262 0.0000
vt 0.6458 0.5721 0.0000
vt 0.5911 0.5721 0.0000
vt 0.5911 0.0262 0.0000
vt 0.8237 0.9071 0.0000
vt 0.4754 0.9071 0.0000
vt 0.4754 0.8524 0.0000
vt 0.8237 0.8524 0.0000
vt 0.9990 0.9920 0.0000
vt 0.4531 0.9920 0.0000
vt 0.4640 0.9810 0.0000
vt 0.9881 0.9810 0.0000
vt 0.4531 0.8178 0.0000
vt 0.4640 0.8178 0.0000
vt 0.4531 0.6437 0.0000
vt 0.9990 0.6437 0.0000
vt 0.9881 0.6546 0.0000
vt 0.4640 0.6546 0.0000
vt 0.4576 0.5961 0.0000
vt 0.9817 0.5961 0.0000
vt 0.9817 0.6407 0.0000
vt 0.4576 0.6407 0.0000
vt 0.4928 0.7362 0.0000
vt 0.6560 0.7362 0.0000
vt 0.6560 0.7809 0.0000
vt 0.4928 0.7809 0.0000
vt 0.5781 0.0465 0.0000
vt 0.5781 0.5706 0.0000
vt 0.5335 0.5706 0.0000
vt 0.5335 0.0465 0.0000
vt 0.4874 0.7918 0.0000
vt 0.8139 0.7918 0.0000
vt 0.8139 0.8365 0.0000
vt 0.4874 0.8365 0.0000
vt 0.8915 0.5865 0.0000
vt 0.8862 0.5815 0.0000
vt 0.8862 0.0130 0.0000
vt 0.8915 0.0081 0.0000
vt 0.5183 0.5865 0.0000
vt 0.5235 0.5815 0.0000
vt 0.7049 0.0130 0.0000
vt 0.7049 0.0081 0.0000
vt 0.5183 0.0081 0.0000
vt 0.5235 0.0130 0.0000
vt 0.6635 0.5706 0.0000
vt 0.6625 0.0279 0.0000
vt 0.8237 0.9099 0.0000
vt 0.4754 0.9099 0.0000
vt 0.6486 0.0262 0.0000
vt 0.6486 0.5721 0.0000
vt 0.4738 0.9702 0.0000
vt 0.6479 0.9731 0.0000
vt 0.4738 0.9731 0.0000
vt 0.0015 0.5000 0.0000
vt 0.0015 0.8039 0.0000
vt 0.0000 0.8039 0.0000
vt 0.0000 0.5000 0.0000
vt 0.0015 1.0000 0.0000
vt 0.0000 1.0000 0.0000
vt 0.0015 0.0000 0.0000
vt 0.0015 0.3039 0.0000
vt 0.0000 0.3039 0.0000
vt 0.0000 0.0000 0.0000
vt 0.0015 0.4020 0.0000
vt 0.0000 0.4020 0.0000
vt 0.2250 0.0010 0.0000
vt 0.4042 0.0010 0.0000
vt 0.4042 0.0743 0.0000
vt 0.2250 0.0743 0.0000
vt 0.4738 0.9155 0.0000
vt 0.8192 0.7362 0.0000
vt 0.8192 0.7809 0.0000
vt 0.8221 0.9731 0.0000
vt 0.4489 0.0743 0.0000
vt 0.3605 0.8124 0.0000
vt 0.4040 0.7363 0.0000
vt 0.0458 0.0010 0.0000
vt 0.0010 0.0010 0.0000
vt 0.0388 0.0079 0.0000
vt 0.0079 0.0079 0.0000
vt 0.0388 0.0459 0.0000
vt 0.0079 0.0459 0.0000
vt 0.4489 0.0010 0.0000
vt 0.4420 0.0459 0.0000
vt 0.4420 0.0079 0.0000
vt 0.4111 0.0459 0.0000
vt 0.4111 0.0079 0.0000
vt 0.3976 0.9624 0.0000
vt 0.4285 0.9624 0.0000
vt 0.4285 0.9953 0.0000
vt 0.3976 0.9953 0.0000
vt 0.3973 0.9244 0.0000
vt 0.4353 0.9244 0.0000
vt 0.4353 0.9573 0.0000
vt 0.3973 0.9573 0.0000
vt 0.3154 0.8884 0.0000
vt 0.3463 0.8884 0.0000
vt 0.3463 0.9213 0.0000
vt 0.3154 0.9213 0.0000
vt 0.3986 0.7853 0.0000
vt 0.4366 0.7853 0.0000
vt 0.4366 0.8182 0.0000
vt 0.3986 0.8182 0.0000
vt 0.3547 0.9248 0.0000
vt 0.3927 0.9248 0.0000
vt 0.3927 0.9577 0.0000
vt 0.3547 0.9577 0.0000
vt 0.3164 0.9260 0.0000
vt 0.3473 0.9260 0.0000
vt 0.3473 0.9589 0.0000
vt 0.3164 0.9589 0.0000
vt 0.3538 0.9619 0.0000
vt 0.3918 0.9619 0.0000
vt 0.3918 0.9948 0.0000
vt 0.3538 0.9948 0.0000
vt 0.3169 0.9625 0.0000
vt 0.3478 0.9625 0.0000
vt 0.3478 0.9954 0.0000
vt 0.3169 0.9954 0.0000
vt 0.8936 0.8378 0.0000
vt 0.8832 0.8378 0.0000
vt 0.8832 0.7998 0.0000
vt 0.8936 0.7998 0.0000
vt 0.8936 0.8840 0.0000
vt 0.8832 0.8840 0.0000
vt 0.8936 0.9220 0.0000
vt 0.8832 0.9220 0.0000
vt 0.8936 0.9671 0.0000
vt 0.8832 0.9671 0.0000
vt 0.8576 0.9230 0.0000
vt 0.8472 0.9230 0.0000
vt 0.8472 0.8779 0.0000
vt 0.8576 0.8779 0.0000
vt 0.8576 0.9610 0.0000
vt 0.8472 0.9610 0.0000
vt 0.8576 0.8399 0.0000
vt 0.8472 0.8399 0.0000
vt 0.8472 0.7949 0.0000
vt 0.8576 0.7949 0.0000
vt 0.3110 0.9976 0.0000
vt 0.0042 0.9976 0.0000
vt 0.0042 0.9667 0.0000
vt 0.3110 0.9667 0.0000
vt 0.3115 0.9645 0.0000
vt 0.0047 0.9645 0.0000
vt 0.0047 0.9265 0.0000
vt 0.3115 0.9265 0.0000
vt 0.4973 0.2768 0.0000
vt 0.4973 0.5836 0.0000
vt 0.4664 0.5836 0.0000
vt 0.4664 0.2768 0.0000
vt 0.3132 0.8132 0.0000
vt 0.0064 0.8132 0.0000
vt 0.0064 0.7752 0.0000
vt 0.3132 0.7752 0.0000
vt 0.3120 0.8550 0.0000
vt 0.0052 0.8550 0.0000
vt 0.0052 0.8171 0.0000
vt 0.3120 0.8171 0.0000
vt 0.3118 0.8899 0.0000
vt 0.0050 0.8899 0.0000
vt 0.0050 0.8590 0.0000
vt 0.3118 0.8590 0.0000
vt 0.7804 0.2605 0.0000
vt 0.7804 0.5672 0.0000
vt 0.7424 0.5672 0.0000
vt 0.7424 0.2605 0.0000
vt 0.8113 0.2605 0.0000
vt 0.8113 0.5672 0.0000
vt 0.3204 0.8159 0.0000
vt 0.3513 0.8159 0.0000
vt 0.3549 0.8195 0.0000
vt 0.3169 0.8195 0.0000
vt 0.3513 0.7779 0.0000
vt 0.3549 0.7744 0.0000
vt 0.3204 0.7779 0.0000
vt 0.3169 0.7744 0.0000
vt 0.3513 0.7180 0.0000
vt 0.3204 0.7180 0.0000
vt 0.3169 0.7145 0.0000
vt 0.3549 0.7145 0.0000
vt 0.3204 0.7560 0.0000
vt 0.3169 0.7596 0.0000
vt 0.3513 0.7560 0.0000
vt 0.3549 0.7596 0.0000
vt 0.3949 0.7560 0.0000
vt 0.3949 0.7180 0.0000
vt 0.3985 0.7145 0.0000
vt 0.3985 0.7596 0.0000
vt 0.3640 0.7180 0.0000
vt 0.3605 0.7145 0.0000
vt 0.3640 0.7560 0.0000
vt 0.3605 0.7596 0.0000
vt 0.3797 0.8334 0.0000
vt 0.3273 0.8342 0.0000
vt 0.3223 0.8294 0.0000
vt 0.3845 0.8284 0.0000
vt 0.3279 0.8768 0.0000
vt 0.3231 0.8818 0.0000
vt 0.3804 0.8760 0.0000
vt 0.3853 0.8808 0.0000
# 226 texture coords

o Plane001
g Plane001
usemtl wire_055126113
s 1
f 1/1/1 2/2/2 3/3/3 4/4/4 5/5/5 
s off
f 6/6/6 7/7/7 8/8/8 9/9/9 
f 10/10/2 11/11/4 12/12/10 
f 13/13/4 14/14/11 15/15/12 
f 16/16/13 6/6/6 9/9/9 17/17/14 
f 18/18/15 19/19/16 20/20/17 21/21/4 
f 19/22/16 22/23/18 23/24/19 20/25/17 
f 24/26/20 25/27/21 26/28/2 27/29/22 
f 25/30/21 18/31/15 21/32/4 26/33/2 
f 21/34/4 20/35/17 28/36/8 29/37/9 
f 20/35/17 23/38/19 30/39/3 28/36/8 
f 27/40/22 26/41/2 31/42/14 32/43/23 
f 26/41/2 21/34/4 29/37/9 31/42/14 
f 29/44/9 28/45/8 2/46/2 1/47/1 
f 28/48/8 30/49/3 3/50/3 2/51/2 
f 32/52/23 31/53/14 5/54/5 4/55/4 
f 31/56/14 29/57/9 1/58/1 5/59/5 
f 33/60/17 34/61/8 35/62/9 36/63/4 
f 37/64/22 38/65/23 34/61/8 33/60/17 
f 36/63/4 35/62/9 39/66/19 40/67/3 
f 41/68/2 42/69/14 38/65/23 37/64/22 
f 19/19/16 18/18/15 38/70/23 42/71/14 
f 18/31/15 25/30/21 34/72/8 38/73/23 
f 25/27/21 24/26/20 35/74/9 34/75/8 
f 24/76/20 22/23/18 39/77/19 35/78/9 
f 43/79/23 17/80/14 33/81/17 36/82/4 
f 17/80/14 9/83/9 37/84/22 33/81/17 
f 9/85/9 8/86/8 41/87/2 37/88/22 
f 8/86/8 44/89/3 40/90/3 41/87/2 
f 45/91/6 46/92/6 43/93/23 44/94/3 
f 22/23/18 24/76/20 27/95/22 23/24/19 
f 23/38/19 27/40/22 32/43/23 30/39/3 
f 30/49/3 32/96/23 4/97/4 3/50/3 
f 44/89/3 43/79/23 36/82/4 40/90/3 
f 39/66/19 42/69/14 41/68/2 40/67/3 
f 22/23/18 19/22/16 42/98/14 39/77/19 
f 47/99/24 16/16/13 17/17/14 43/93/23 
f 48/100/25 10/10/2 12/12/10 
f 49/101/2 13/13/4 15/15/12 
f 50/102/13 45/91/6 44/94/3 8/8/8 
f 51/103/24 50/102/13 52/104/23 53/105/8 
f 50/102/13 8/8/8 54/106/14 52/104/23 
f 8/8/8 7/7/7 55/107/9 54/106/14 
f 7/7/7 51/103/24 53/105/8 55/107/9 
f 56/108/7 47/99/24 57/109/14 58/110/23 
f 47/99/24 43/93/23 59/111/9 57/109/14 
f 43/93/23 46/92/6 60/112/8 59/111/9 
f 46/92/6 56/108/7 58/110/23 60/112/8 
f 53/113/8 52/114/23 61/115/26 62/116/27 
f 52/117/23 54/118/14 63/119/28 61/120/26 
f 54/121/14 55/122/9 64/123/29 63/124/28 
f 55/125/9 53/126/8 62/127/27 64/128/29 
f 58/129/23 57/130/14 65/131/28 66/132/26 
f 57/133/14 59/134/9 67/135/29 65/136/28 
f 59/137/9 60/138/8 68/139/27 67/140/29 
f 60/141/8 58/142/23 66/143/26 68/144/27 
f 69/145/30 70/146/4 71/147/2 72/148/31 
f 73/149/32 74/150/10 70/146/4 69/145/30 
f 75/151/33 76/152/34 74/150/10 73/149/32 
f 72/153/31 71/154/2 76/152/34 75/151/33 
f 77/155/35 78/156/36 79/157/37 80/158/30 
f 81/159/38 82/160/12 78/156/36 77/155/35 
f 83/161/31 84/162/2 82/163/12 81/164/38 
f 80/158/30 79/157/37 84/162/2 83/161/31 
f 85/165/23 11/166/4 10/167/2 86/168/8 
f 87/169/14 12/170/10 11/171/4 85/172/23 
f 88/173/9 48/174/25 12/175/10 87/176/14 
f 86/177/8 10/178/2 48/179/25 88/180/9 
f 89/181/14 14/182/11 13/183/4 90/184/23 
f 91/185/9 15/186/12 14/187/11 89/188/14 
f 92/189/8 49/190/2 15/191/12 91/192/9 
f 90/193/23 13/194/4 49/190/2 92/189/8 
f 62/195/27 61/196/26 69/197/30 72/198/31 
f 61/196/26 63/199/28 73/200/32 69/197/30 
f 63/199/28 64/201/29 75/202/33 73/200/32 
f 64/201/29 62/195/27 72/198/31 75/202/33 
f 85/203/23 86/204/8 71/205/2 70/206/4 
f 86/204/8 88/207/9 76/208/34 71/205/2 
f 88/207/9 87/209/14 74/210/10 76/208/34 
f 87/209/14 85/203/23 70/206/4 74/210/10 
f 66/211/26 65/212/28 77/213/35 80/214/30 
f 65/212/28 67/215/29 81/216/38 77/213/35 
f 67/215/29 68/217/27 83/218/31 81/216/38 
f 68/217/27 66/211/26 80/214/30 83/218/31 
f 89/219/14 90/220/23 79/221/37 78/222/36 
f 90/220/23 92/223/8 84/224/2 79/221/37 
f 92/223/8 91/225/9 82/226/12 84/224/2 
f 91/225/9 89/219/14 78/222/36 82/226/12 
# 84 polygons - 4 triangles

