# 3ds Max Wavefront OBJ Exporter v0.99 - (c)2007 guruware
# File Created: 26.02.2026 00:56:07

mtllib Pr_Floor.mtl

#
# object Cylinder002
#

v  28.2843 122.2602 28.2843
v  0.0000 122.2602 40.0000
v  -28.2843 122.2602 28.2843
v  -40.0000 122.2602 0.0000
v  -28.2843 122.2602 -28.2843
v  -0.0000 122.2602 -40.0000
v  28.2843 122.2602 -28.2843
v  40.0000 122.2602 -0.0000
v  28.2843 130.2602 -28.2843
v  40.0000 130.2602 -0.0000
v  -0.0000 130.2602 -40.0000
v  -28.2843 130.2602 -28.2843
v  -40.0000 130.2602 0.0000
v  -28.2843 130.2602 28.2843
v  0.0000 130.2602 40.0000
v  28.2843 130.2602 28.2843
v  23.3525 127.8862 23.3525
v  33.0254 127.8862 -0.0000
v  23.3525 127.8862 -23.3525
v  -0.0000 127.8862 -33.0254
v  -23.3525 127.8862 -23.3525
v  -33.0254 127.8862 0.0000
v  -23.3525 127.8862 23.3525
v  0.0000 127.8862 33.0254
v  38.1646 129.8405 -0.0000
v  26.9864 129.8405 -26.9864
v  24.6503 129.8405 -24.6503
v  34.8608 129.8405 -0.0000
v  -0.0000 129.8405 -38.1646
v  -0.0000 129.8405 -34.8608
v  -26.9864 129.8405 -26.9864
v  -24.6503 129.8405 -24.6503
v  -38.1646 129.8405 0.0000
v  -34.8608 129.8405 0.0000
v  -26.9864 129.8405 26.9864
v  -24.6503 129.8405 24.6503
v  0.0000 129.8405 38.1646
v  0.0000 129.8405 34.8608
v  26.9864 129.8405 26.9864
v  24.6503 129.8405 24.6503
v  33.0254 130.2602 -0.0000
v  23.3525 130.2602 -23.3525
v  -0.0000 130.2602 -33.0254
v  -23.3525 130.2602 -23.3525
v  -33.0254 130.2602 0.0000
v  -23.3525 130.2602 23.3525
v  0.0000 130.2602 33.0254
v  23.3525 130.2602 23.3525
v  26.9864 130.2602 -26.9864
v  38.1646 130.2602 -0.0000
v  -0.0000 130.2602 -38.1646
v  -26.9864 130.2602 -26.9864
v  -38.1646 130.2602 0.0000
v  -26.9864 130.2602 26.9864
v  0.0000 130.2602 38.1646
v  26.9864 130.2602 26.9864
v  34.8608 130.2602 -0.0000
v  24.6503 130.2602 -24.6503
v  24.6503 130.2602 24.6503
v  0.0000 130.2602 34.8608
v  -24.6503 130.2602 24.6503
v  -34.8608 130.2602 0.0000
v  -24.6503 130.2602 -24.6503
v  -0.0000 130.2602 -34.8608
# 64 vertices

vn 0.5490 -0.6303 0.5490
vn 0.0000 -0.6303 0.7764
vn -0.5490 -0.6303 0.5490
vn -0.7764 -0.6303 0.0000
vn -0.5490 -0.6303 -0.5490
vn -0.0000 -0.6303 -0.7764
vn 0.5489 -0.6303 -0.5490
vn 0.7763 -0.6303 0.0000
vn 0.5489 0.6303 -0.5490
vn 0.7763 0.6303 0.0000
vn -0.0000 0.6303 -0.7764
vn -0.5490 0.6303 -0.5490
vn -0.7764 0.6303 0.0000
vn -0.5490 0.6303 0.5490
vn 0.0000 0.6303 0.7764
vn 0.5490 0.6303 0.5490
vn -0.7764 0.6303 -0.0000
vn -0.0000 0.6303 0.7763
vn 0.5490 0.6303 0.5489
vn 0.7764 0.6303 -0.0000
vn 0.5490 0.6303 -0.5490
vn 0.0000 0.6303 -0.7764
vn 0.4203 0.8042 -0.4203
vn 0.5944 0.8042 0.0000
vn -0.0000 0.8042 -0.5944
vn -0.4203 0.8042 -0.4203
vn -0.5943 0.8042 -0.0000
vn -0.4202 0.8042 0.4203
vn 0.0000 0.8042 0.5944
vn 0.4203 0.8042 0.4203
vn -0.5944 0.8042 -0.0000
vn -0.4203 0.8042 0.4203
vn -0.0000 0.8042 0.5943
vn 0.4203 0.8042 0.4202
vn 0.5944 0.8042 -0.0000
vn 0.0000 0.8042 -0.5944
vn 0.7764 0.6303 0.0000
vn -0.5489 0.6303 0.5490
vn -0.7763 0.6303 -0.0000
# 39 vertex normals

vt 0.9141 0.6712 0.0000
vt 0.9152 0.7997 0.0000
vt 0.8252 0.8914 0.0000
vt 0.6967 0.8925 0.0000
vt 0.6050 0.8024 0.0000
vt 0.6039 0.6739 0.0000
vt 0.6940 0.5823 0.0000
vt 0.8225 0.5811 0.0000
vt 0.3584 0.0159 0.0000
vt 0.4828 0.0159 0.0000
vt 0.4828 0.0497 0.0000
vt 0.3584 0.0497 0.0000
vt 0.6121 0.0159 0.0000
vt 0.6121 0.0497 0.0000
vt 0.7414 0.0159 0.0000
vt 0.7414 0.0497 0.0000
vt 0.8707 0.0159 0.0000
vt 0.8707 0.0497 0.0000
vt 1.0000 0.0159 0.0000
vt 1.0000 0.0497 0.0000
vt 0.0000 0.0159 0.0000
vt 0.1195 0.0159 0.0000
vt 0.1195 0.0497 0.0000
vt 0.0000 0.0497 0.0000
vt 0.2389 0.0159 0.0000
vt 0.2389 0.0497 0.0000
vt 0.3591 0.9580 0.0000
vt 0.1733 0.9597 0.0000
vt 0.0407 0.8294 0.0000
vt 0.0391 0.6436 0.0000
vt 0.1693 0.5111 0.0000
vt 0.3552 0.5095 0.0000
vt 0.4877 0.6397 0.0000
vt 0.4893 0.8255 0.0000
vt 0.9895 0.8330 0.0000
vt 0.8573 0.9675 0.0000
vt 0.8490 0.9479 0.0000
vt 0.9697 0.8250 0.0000
vt 0.6687 0.9691 0.0000
vt 0.6767 0.9494 0.0000
vt 0.5341 0.8369 0.0000
vt 0.5538 0.8286 0.0000
vt 0.5325 0.6483 0.0000
vt 0.5523 0.6563 0.0000
vt 0.6647 0.5138 0.0000
vt 0.6730 0.5334 0.0000
vt 0.8533 0.5121 0.0000
vt 0.8453 0.5319 0.0000
vt 0.9878 0.6444 0.0000
vt 0.9682 0.6527 0.0000
vt 0.3750 0.0949 0.0000
vt 0.2500 0.0949 0.0000
vt 0.2500 0.0669 0.0000
vt 0.3750 0.0669 0.0000
vt 0.1250 0.0949 0.0000
vt 0.1250 0.0669 0.0000
vt 0.0000 0.0949 0.0000
vt 0.0000 0.0669 0.0000
vt 1.0000 0.0949 0.0000
vt 0.8750 0.0949 0.0000
vt 0.8750 0.0669 0.0000
vt 1.0000 0.0669 0.0000
vt 0.7500 0.0949 0.0000
vt 0.7500 0.0669 0.0000
vt 0.6250 0.0949 0.0000
vt 0.6250 0.0669 0.0000
vt 0.5000 0.0949 0.0000
vt 0.5000 0.0669 0.0000
vt 0.1644 0.9847 0.0000
vt 0.0172 0.8400 0.0000
vt 0.0286 0.8352 0.0000
vt 0.1690 0.9732 0.0000
vt 0.0154 0.6336 0.0000
vt 0.0268 0.6383 0.0000
vt 0.1600 0.4864 0.0000
vt 0.1649 0.4978 0.0000
vt 0.3664 0.4846 0.0000
vt 0.3618 0.4961 0.0000
vt 0.5137 0.6293 0.0000
vt 0.5023 0.6341 0.0000
vt 0.5155 0.8357 0.0000
vt 0.5040 0.8311 0.0000
vt 0.3708 0.9829 0.0000
vt 0.3660 0.9715 0.0000
vt 0.9422 0.6613 0.0000
vt 0.8330 0.5540 0.0000
vt 0.8371 0.5437 0.0000
vt 0.9524 0.6569 0.0000
vt 0.6799 0.5553 0.0000
vt 0.6756 0.5451 0.0000
vt 0.5726 0.6645 0.0000
vt 0.5623 0.6603 0.0000
vt 0.5739 0.8176 0.0000
vt 0.5637 0.8219 0.0000
vt 0.6831 0.9249 0.0000
vt 0.6790 0.9352 0.0000
vt 0.8362 0.9235 0.0000
vt 0.8406 0.9338 0.0000
vt 0.9435 0.8144 0.0000
vt 0.9538 0.8185 0.0000
vt 0.8623 0.1964 0.0000
vt 0.7246 0.1964 0.0000
vt 0.7246 0.1667 0.0000
vt 0.8623 0.1667 0.0000
vt 0.6272 0.1964 0.0000
vt 0.6272 0.1667 0.0000
vt 0.4895 0.1964 0.0000
vt 0.4895 0.1667 0.0000
vt 0.3921 0.1964 0.0000
vt 0.3921 0.1667 0.0000
vt 0.2544 0.1964 0.0000
vt 0.2544 0.1667 0.0000
vt 0.1272 0.1964 0.0000
vt 0.1272 0.1667 0.0000
vt 0.0000 0.1964 0.0000
vt 0.0000 0.1667 0.0000
vt 1.0000 0.1964 0.0000
vt 1.0000 0.1667 0.0000
vt 0.4881 0.1407 0.0000
vt 0.3441 0.1407 0.0000
vt 0.3441 0.1119 0.0000
vt 0.4881 0.1119 0.0000
vt 0.2423 0.1407 0.0000
vt 0.2423 0.1119 0.0000
vt 0.1018 0.1407 0.0000
vt 0.1018 0.1119 0.0000
vt 0.0000 0.1407 0.0000
vt 0.0000 0.1119 0.0000
vt 1.0000 0.1407 0.0000
vt 0.8670 0.1407 0.0000
vt 0.8670 0.1119 0.0000
vt 1.0000 0.1119 0.0000
vt 0.7339 0.1407 0.0000
vt 0.7339 0.1119 0.0000
vt 0.5899 0.1407 0.0000
vt 0.5899 0.1119 0.0000
# 136 texture coords

o Cylinder002
g Cylinder002
usemtl wire_118037029
s 1
f 1/1/1 2/2/2 3/3/3 4/4/4 5/5/5 6/6/6 7/7/7 8/8/8 
s 8
f 8/9/8 7/10/7 9/11/9 10/12/10 
f 7/10/7 6/13/6 11/14/11 9/11/9 
f 6/13/6 5/15/5 12/16/12 11/14/11 
f 5/15/5 4/17/4 13/18/13 12/16/12 
f 4/17/4 3/19/3 14/20/14 13/18/13 
f 3/21/3 2/22/2 15/23/15 14/24/14 
f 2/22/2 1/25/1 16/26/16 15/23/15 
f 1/25/1 8/9/8 10/12/10 16/26/16 
s 1
f 17/27/12 18/28/17 19/29/14 20/30/18 21/31/19 22/32/20 23/33/21 24/34/22 
s off
f 25/35/17 26/36/14 27/37/23 28/38/24 
f 26/36/14 29/39/15 30/40/25 27/37/23 
f 29/39/15 31/41/16 32/42/26 30/40/25 
f 31/41/16 33/43/20 34/44/27 32/42/26 
f 33/43/20 35/45/21 36/46/28 34/44/27 
f 35/45/21 37/47/22 38/48/29 36/46/28 
f 37/47/22 39/49/12 40/50/30 38/48/29 
f 39/49/12 25/35/17 28/38/24 40/50/30 
f 41/51/31 42/52/32 19/53/14 18/54/17 
f 42/52/32 43/55/33 20/56/18 19/53/14 
f 43/55/33 44/57/34 21/58/19 20/56/18 
f 44/59/34 45/60/35 22/61/20 21/62/19 
f 45/60/35 46/63/23 23/64/21 22/61/20 
f 46/63/23 47/65/36 24/66/22 23/64/21 
f 47/65/36 48/67/26 17/68/12 24/66/22 
f 48/67/26 41/51/31 18/54/17 17/68/12 
f 10/69/10 9/70/9 49/71/32 50/72/31 
f 9/70/9 11/73/11 51/74/29 49/71/32 
f 11/73/11 12/75/12 52/76/30 51/74/29 
f 12/75/12 13/77/13 53/78/35 52/76/30 
f 13/77/13 14/79/14 54/80/23 53/78/35 
f 14/79/14 15/81/15 55/82/36 54/80/23 
f 15/81/15 16/83/16 56/84/26 55/82/36 
f 16/83/16 10/69/10 50/72/31 56/84/26 
f 42/85/32 41/86/31 57/87/37 58/88/21 
f 41/86/31 48/89/26 59/90/16 57/87/37 
f 48/89/26 47/91/36 60/92/15 59/90/16 
f 47/91/36 46/93/23 61/94/38 60/92/15 
f 46/93/23 45/95/35 62/96/39 61/94/38 
f 45/95/35 44/97/34 63/98/12 62/96/39 
f 44/97/34 43/99/33 64/100/11 63/98/12 
f 43/99/33 42/85/32 58/88/21 64/100/11 
f 50/101/31 49/102/32 26/103/14 25/104/17 
f 49/102/32 51/105/29 29/106/15 26/103/14 
f 51/105/29 52/107/30 31/108/16 29/106/15 
f 52/107/30 53/109/35 33/110/20 31/108/16 
f 53/109/35 54/111/23 35/112/21 33/110/20 
f 54/111/23 55/113/36 37/114/22 35/112/21 
f 55/113/36 56/115/26 39/116/12 37/114/22 
f 56/117/26 50/101/31 25/104/17 39/118/12 
f 58/119/21 57/120/37 28/121/24 27/122/23 
f 57/120/37 59/123/16 40/124/30 28/121/24 
f 59/123/16 60/125/15 38/126/29 40/124/30 
f 60/125/15 61/127/38 36/128/28 38/126/29 
f 61/129/38 62/130/39 34/131/27 36/132/28 
f 62/130/39 63/133/12 32/134/26 34/131/27 
f 63/133/12 64/135/11 30/136/25 32/134/26 
f 64/135/11 58/119/21 27/122/23 30/136/25 
# 58 polygons

