# 3ds Max Wavefront OBJ Exporter v0.99 - (c)2007 guruware
# File Created: 04.05.2026 18:41:40

mtllib ??2.mtl

#
# object Box007
#

v  21.3416 0.0000 7.5000
v  21.3416 0.0000 -7.5000
v  36.3416 0.0000 -7.5000
v  36.3416 0.0000 7.5000
v  16.5348 87.7965 5.2675
v  26.5434 83.6724 5.2675
v  26.5434 83.6724 -5.2675
v  16.5348 87.7965 -5.2675
v  36.3416 10.0000 7.5000
v  21.3416 10.0000 7.5000
v  36.3416 10.0000 -7.5000
v  21.3416 10.0000 -7.5000
v  -36.3416 0.0000 7.5000
v  -36.3416 0.0000 -7.5000
v  -21.3416 0.0000 -7.5000
v  -21.3416 0.0000 7.5000
v  -26.5434 83.6724 5.2675
v  -16.5348 87.7965 5.2675
v  -16.5348 87.7965 -5.2675
v  -26.5434 83.6724 -5.2675
v  -21.3416 10.0000 7.5000
v  -36.3416 10.0000 7.5000
v  -21.3416 10.0000 -7.5000
v  -36.3416 10.0000 -7.5000
v  34.1091 10.0000 5.2675
v  23.5741 10.0000 5.2675
v  34.1091 10.0000 -5.2675
v  23.5741 10.0000 -5.2675
v  -23.5741 10.0000 5.2675
v  -34.1091 10.0000 5.2675
v  -23.5741 10.0000 -5.2675
v  -34.1091 10.0000 -5.2675
v  34.1091 68.2716 5.2675
v  23.5741 68.2716 5.2675
v  34.1091 68.2716 -5.2675
v  23.5741 68.2716 -5.2675
v  -23.5741 68.2716 5.2675
v  -34.1091 68.2716 5.2675
v  -23.5741 68.2716 -5.2675
v  -34.1091 68.2716 -5.2675
v  35.2150 68.2716 6.3734
v  35.2150 70.3861 6.3734
v  22.4682 70.3861 6.3734
v  22.4682 68.2716 6.3734
v  35.2150 68.2716 -6.3734
v  35.2150 70.3861 -6.3734
v  22.4682 68.2716 -6.3734
v  22.4682 70.3861 -6.3734
v  -22.4682 68.2716 6.3734
v  -22.4682 70.3861 6.3734
v  -35.2150 70.3861 6.3734
v  -35.2150 68.2716 6.3734
v  -22.4682 68.2716 -6.3734
v  -22.4682 70.3861 -6.3734
v  -35.2150 68.2716 -6.3734
v  -35.2150 70.3861 -6.3734
v  34.1091 70.3861 5.2675
v  23.5741 70.3861 5.2675
v  23.5741 70.3861 -5.2675
v  34.1091 70.3861 -5.2675
v  -23.5741 70.3861 5.2675
v  -34.1091 70.3861 5.2675
v  -34.1091 70.3861 -5.2675
v  -23.5741 70.3861 -5.2675
v  24.2681 71.9317 3.7220
v  32.1172 71.9317 3.7220
v  31.0055 76.2668 3.7220
v  18.4459 78.4810 3.7220
v  32.4105 77.0100 -5.2675
v  32.4105 77.0100 5.2675
v  32.1172 71.9317 -3.7220
v  24.2681 71.9317 -3.7220
v  18.4459 78.4810 -3.7220
v  31.0055 76.2668 -3.7220
v  17.6566 77.0426 5.2675
v  17.6566 77.0426 -5.2675
v  -32.1172 71.9317 3.7220
v  -24.2681 71.9317 3.7220
v  -18.4459 78.4810 3.7220
v  -31.0055 76.2668 3.7220
v  -17.6566 77.0426 -5.2675
v  -17.6566 77.0426 5.2675
v  -24.2681 71.9317 -3.7220
v  -32.1172 71.9317 -3.7220
v  -31.0055 76.2668 -3.7220
v  -18.4459 78.4810 -3.7220
v  -32.4105 77.0100 5.2675
v  -32.4105 77.0100 -5.2675
v  25.6215 82.3806 3.7220
v  16.1239 86.2942 3.7220
v  16.1239 86.2942 -3.7220
v  25.6215 82.3806 -3.7220
v  -16.1239 86.2942 3.7220
v  -25.6215 82.3806 3.7220
v  -25.6215 82.3806 -3.7220
v  -16.1239 86.2942 -3.7220
v  6.3114 80.4342 -3.7220
v  6.0926 87.7398 -3.7220
v  6.1878 78.8887 5.2675
v  6.1878 78.8887 -5.2675
v  6.0926 87.7398 3.7220
v  6.3114 80.4342 3.7220
v  6.2034 89.2853 -5.2675
v  6.2034 89.2853 5.2675
v  -6.3114 80.4342 -3.7220
v  -6.0926 87.7398 -3.7220
v  -6.1878 78.8887 5.2675
v  -6.1878 78.8887 -5.2675
v  -6.0926 87.7398 3.7220
v  -6.3114 80.4342 3.7220
v  -6.2034 89.2853 -5.2675
v  -6.2034 89.2853 5.2675
v  0.0000 80.4342 -3.7220
v  0.0000 87.7398 -3.7220
v  0.0000 78.8887 5.2675
v  0.0000 78.8887 -5.2675
v  0.0000 87.7398 3.7220
v  0.0000 80.4342 3.7220
v  0.0000 89.2853 -5.2675
v  0.0000 89.2853 5.2675
v  16.1239 86.2942 5.2675
v  25.6215 82.3806 5.2675
v  6.0926 87.7398 5.2675
v  0.0000 87.7398 5.2675
v  -6.0926 87.7398 5.2675
v  -16.1239 86.2942 5.2675
v  -25.6215 82.3806 5.2675
v  -31.0055 76.2668 5.2675
v  -32.1172 71.9317 5.2675
v  -24.2681 71.9317 5.2675
v  -18.4459 78.4810 5.2675
v  -6.3114 80.4342 5.2675
v  0.0000 80.4342 5.2675
v  6.3114 80.4342 5.2675
v  18.4459 78.4810 5.2675
v  24.2681 71.9317 5.2675
v  32.1172 71.9317 5.2675
v  31.0055 76.2668 5.2675
v  25.6215 82.3806 -5.2675
v  16.1239 86.2942 -5.2675
v  31.0055 76.2668 -5.2675
v  32.1172 71.9317 -5.2675
v  24.2681 71.9317 -5.2675
v  18.4459 78.4810 -5.2675
v  6.3114 80.4342 -5.2675
v  0.0000 80.4342 -5.2675
v  -6.3114 80.4342 -5.2675
v  -18.4459 78.4810 -5.2675
v  -24.2681 71.9317 -5.2675
v  -32.1172 71.9317 -5.2675
v  -31.0055 76.2668 -5.2675
v  -25.6215 82.3806 -5.2675
v  -16.1239 86.2942 -5.2675
v  -6.0926 87.7398 -5.2675
v  0.0000 87.7398 -5.2675
v  6.0926 87.7398 -5.2675
# 156 vertices

vn -0.5774 -0.5774 0.5774
vn -0.5774 -0.5774 -0.5774
vn 0.5774 -0.5774 -0.5774
vn 0.5774 -0.5774 0.5774
vn 0.1933 0.7069 0.6804
vn 0.4367 0.6119 0.6595
vn 0.4367 0.6119 -0.6595
vn 0.1933 0.7069 -0.6804
vn 0.5774 0.5774 0.5774
vn -0.5774 0.5774 0.5774
vn 0.5774 0.5774 -0.5774
vn -0.5774 0.5774 -0.5774
vn -0.4367 0.6119 0.6594
vn -0.1934 0.7069 0.6804
vn -0.1934 0.7069 -0.6804
vn -0.4367 0.6119 -0.6594
vn 0.3015 0.9045 0.3015
vn -0.3015 0.9045 0.3015
vn 0.3015 0.9045 -0.3015
vn -0.3015 0.9045 -0.3015
vn 0.3015 -0.9045 0.3015
vn -0.3015 -0.9045 0.3015
vn 0.3015 -0.9045 -0.3015
vn -0.3015 -0.9045 -0.3015
vn 0.2774 0.9302 0.2406
vn -0.2617 0.8180 0.5122
vn -0.2617 0.8180 -0.5122
vn 0.2774 0.9302 -0.2406
vn 0.2617 0.8180 0.5122
vn -0.2774 0.9302 0.2406
vn -0.2774 0.9302 -0.2406
vn 0.2617 0.8180 -0.5122
vn 0.3196 0.7118 0.6255
vn -0.6516 0.5058 0.5653
vn -0.6655 -0.3520 0.6582
vn 0.2943 0.5363 0.7910
vn 0.6655 0.3520 -0.6582
vn 0.6655 0.3520 0.6582
vn -0.6516 0.5058 -0.5653
vn 0.3196 0.7118 -0.6255
vn 0.2943 0.5363 -0.7910
vn -0.6655 -0.3520 -0.6582
vn -0.2943 -0.5364 0.7910
vn -0.2943 -0.5364 -0.7910
vn 0.6517 0.5057 0.5653
vn -0.3196 0.7118 0.6255
vn -0.2943 0.5364 0.7910
vn 0.6655 -0.3520 0.6582
vn 0.2943 -0.5364 -0.7910
vn 0.2943 -0.5364 0.7910
vn -0.3196 0.7118 -0.6255
vn 0.6517 0.5057 -0.5653
vn 0.6655 -0.3520 -0.6582
vn -0.2943 0.5364 -0.7910
vn -0.6655 0.3520 0.6582
vn -0.6655 0.3520 -0.6582
vn -0.4367 -0.6119 0.6594
vn -0.1934 -0.7069 0.6803
vn -0.1934 -0.7069 -0.6803
vn -0.4367 -0.6119 -0.6594
vn 0.1934 -0.7069 0.6803
vn 0.4367 -0.6119 0.6594
vn 0.4367 -0.6119 -0.6594
vn 0.1934 -0.7069 -0.6803
vn 0.0549 0.6860 -0.7255
vn -0.0517 -0.7207 -0.6914
vn -0.0549 -0.6860 0.7255
vn -0.0549 -0.6860 -0.7255
vn -0.0517 -0.7207 0.6914
vn 0.0549 0.6860 0.7255
vn 0.0517 0.7206 -0.6914
vn 0.0517 0.7206 0.6914
vn -0.0549 0.6860 -0.7255
vn 0.0517 -0.7207 -0.6914
vn 0.0549 -0.6860 0.7255
vn 0.0549 -0.6860 -0.7255
vn 0.0517 -0.7207 0.6914
vn -0.0549 0.6860 0.7255
vn -0.0517 0.7206 -0.6914
vn -0.0517 0.7206 0.6914
vn 0.0000 0.7071 -0.7071
vn 0.0000 -0.7071 -0.7071
vn 0.0000 -0.7071 0.7071
vn 0.0000 0.7071 0.7071
vn -0.1786 -0.6530 0.7360
vn -0.3762 -0.5272 0.7619
vn -0.0494 -0.6885 0.7236
vn 0.0494 -0.6885 0.7236
vn 0.1786 -0.6530 0.7360
vn 0.3762 -0.5272 0.7619
vn 0.5708 -0.3019 0.7636
vn 0.2858 0.2218 0.9323
vn -0.2391 0.5326 0.8119
vn -0.3701 0.6745 0.6388
vn -0.0577 0.7219 0.6896
vn 0.0577 0.7219 0.6896
vn 0.3701 0.6745 0.6388
vn 0.2391 0.5326 0.8119
vn -0.2857 0.2218 0.9323
vn -0.5707 -0.3019 0.7636
vn -0.3762 -0.5272 -0.7619
vn -0.1786 -0.6530 -0.7360
vn -0.5707 -0.3019 -0.7636
vn -0.2857 0.2218 -0.9323
vn 0.2391 0.5326 -0.8119
vn 0.3701 0.6745 -0.6388
vn 0.0577 0.7219 -0.6896
vn -0.0577 0.7219 -0.6896
vn -0.3701 0.6745 -0.6388
vn -0.2391 0.5326 -0.8119
vn 0.2858 0.2218 -0.9323
vn 0.5708 -0.3019 -0.7636
vn 0.3762 -0.5272 -0.7619
vn 0.1786 -0.6530 -0.7360
vn 0.0494 -0.6885 -0.7236
vn -0.0494 -0.6885 -0.7236
# 116 vertex normals

vt 0.4919 0.1662 0.0000
vt 0.6044 0.1662 0.0000
vt 0.6044 0.2787 0.0000
vt 0.4919 0.2787 0.0000
vt 0.8855 0.6168 0.0000
vt 0.8855 0.5417 0.0000
vt 0.9645 0.5417 0.0000
vt 0.9645 0.6168 0.0000
vt 0.6167 0.8539 0.0000
vt 0.6167 0.9663 0.0000
vt 0.5417 0.9663 0.0000
vt 0.5417 0.8539 0.0000
vt 0.4919 0.2838 0.0000
vt 0.6044 0.2838 0.0000
vt 0.6044 0.3588 0.0000
vt 0.4919 0.3588 0.0000
vt 0.6167 0.7317 0.0000
vt 0.6167 0.8442 0.0000
vt 0.5417 0.8442 0.0000
vt 0.5417 0.7317 0.0000
vt 0.6936 0.8539 0.0000
vt 0.6936 0.9663 0.0000
vt 0.6186 0.9663 0.0000
vt 0.6186 0.8539 0.0000
vt 0.4919 0.3607 0.0000
vt 0.6044 0.3607 0.0000
vt 0.6044 0.4732 0.0000
vt 0.4919 0.4732 0.0000
vt 0.8855 0.9398 0.0000
vt 0.8855 0.8648 0.0000
vt 0.9645 0.8648 0.0000
vt 0.9645 0.9398 0.0000
vt 0.5398 0.7317 0.0000
vt 0.5398 0.8442 0.0000
vt 0.4648 0.8442 0.0000
vt 0.4648 0.7317 0.0000
vt 0.6729 0.5417 0.0000
vt 0.7854 0.5417 0.0000
vt 0.7854 0.6167 0.0000
vt 0.6729 0.6167 0.0000
vt 0.5398 0.8539 0.0000
vt 0.5398 0.9663 0.0000
vt 0.4648 0.9663 0.0000
vt 0.4648 0.8539 0.0000
vt 0.6729 0.6186 0.0000
vt 0.7854 0.6186 0.0000
vt 0.7854 0.6936 0.0000
vt 0.6729 0.6936 0.0000
vt 0.6729 0.6955 0.0000
vt 0.7854 0.6955 0.0000
vt 0.7686 0.7123 0.0000
vt 0.6896 0.7123 0.0000
vt 0.7854 0.8080 0.0000
vt 0.7686 0.7913 0.0000
vt 0.6729 0.8080 0.0000
vt 0.6896 0.7913 0.0000
vt 0.7634 0.8131 0.0000
vt 0.8759 0.8131 0.0000
vt 0.8591 0.8299 0.0000
vt 0.7801 0.8299 0.0000
vt 0.8759 0.9256 0.0000
vt 0.8591 0.9089 0.0000
vt 0.7634 0.9256 0.0000
vt 0.7801 0.9089 0.0000
vt 0.6931 0.5399 0.0000
vt 0.6141 0.5399 0.0000
vt 0.6141 0.1029 0.0000
vt 0.6931 0.1029 0.0000
vt 0.0260 0.7836 0.0000
vt 0.0260 0.7046 0.0000
vt 0.4630 0.7046 0.0000
vt 0.4630 0.7836 0.0000
vt 0.4630 0.8855 0.0000
vt 0.4630 0.9645 0.0000
vt 0.0260 0.9645 0.0000
vt 0.0260 0.8855 0.0000
vt 0.0260 0.8740 0.0000
vt 0.0260 0.7950 0.0000
vt 0.4630 0.7950 0.0000
vt 0.4630 0.8740 0.0000
vt 0.9696 0.0215 0.0000
vt 0.9696 0.1005 0.0000
vt 0.5327 0.1005 0.0000
vt 0.5327 0.0215 0.0000
vt 0.7836 0.5399 0.0000
vt 0.7046 0.5399 0.0000
vt 0.7046 0.1029 0.0000
vt 0.7836 0.1029 0.0000
vt 0.9645 0.5399 0.0000
vt 0.8855 0.5399 0.0000
vt 0.8855 0.1029 0.0000
vt 0.9645 0.1029 0.0000
vt 0.8740 0.5399 0.0000
vt 0.7950 0.5399 0.0000
vt 0.7950 0.1029 0.0000
vt 0.8740 0.1029 0.0000
vt 0.3223 0.4518 0.0000
vt 0.3065 0.4518 0.0000
vt 0.3065 0.3562 0.0000
vt 0.3223 0.3562 0.0000
vt 0.2228 0.5197 0.0000
vt 0.2069 0.5197 0.0000
vt 0.2069 0.4241 0.0000
vt 0.2228 0.4241 0.0000
vt 0.3404 0.4518 0.0000
vt 0.3246 0.4518 0.0000
vt 0.3246 0.3562 0.0000
vt 0.3404 0.3562 0.0000
vt 0.0418 0.6509 0.0000
vt 0.0260 0.6509 0.0000
vt 0.0260 0.5553 0.0000
vt 0.0418 0.5553 0.0000
vt 0.1216 0.0215 0.0000
vt 0.1216 0.0373 0.0000
vt 0.0260 0.0373 0.0000
vt 0.0260 0.0215 0.0000
vt 0.6345 0.8409 0.0000
vt 0.6186 0.8409 0.0000
vt 0.6186 0.7453 0.0000
vt 0.6345 0.7453 0.0000
vt 0.5287 0.0260 0.0000
vt 0.5287 0.0418 0.0000
vt 0.4331 0.0418 0.0000
vt 0.4331 0.0260 0.0000
vt 0.3042 0.4518 0.0000
vt 0.2884 0.4518 0.0000
vt 0.2884 0.3562 0.0000
vt 0.3042 0.3562 0.0000
vt 0.3917 0.3736 0.0000
vt 0.3917 0.4526 0.0000
vt 0.3834 0.4609 0.0000
vt 0.3834 0.3653 0.0000
vt 0.4707 0.4526 0.0000
vt 0.4790 0.4609 0.0000
vt 0.4707 0.3736 0.0000
vt 0.4790 0.3653 0.0000
vt 0.4707 0.5521 0.0000
vt 0.4707 0.4731 0.0000
vt 0.4790 0.4648 0.0000
vt 0.4790 0.5604 0.0000
vt 0.3917 0.4731 0.0000
vt 0.3834 0.4648 0.0000
vt 0.3917 0.5521 0.0000
vt 0.3834 0.5604 0.0000
vt 0.4707 0.2740 0.0000
vt 0.3917 0.2740 0.0000
vt 0.3834 0.2657 0.0000
vt 0.4790 0.2657 0.0000
vt 0.3917 0.3530 0.0000
vt 0.3834 0.3613 0.0000
vt 0.4707 0.3530 0.0000
vt 0.4790 0.3613 0.0000
vt 0.3917 0.2535 0.0000
vt 0.4707 0.2535 0.0000
vt 0.4790 0.2618 0.0000
vt 0.3834 0.2618 0.0000
vt 0.4707 0.1745 0.0000
vt 0.4790 0.1662 0.0000
vt 0.3917 0.1745 0.0000
vt 0.3834 0.1662 0.0000
vt 0.2576 0.5981 0.0000
vt 0.2576 0.6570 0.0000
vt 0.2251 0.6486 0.0000
vt 0.2085 0.5544 0.0000
vt 0.6594 0.5598 0.0000
vt 0.6594 0.6388 0.0000
vt 0.6098 0.6388 0.0000
vt 0.6098 0.5598 0.0000
vt 0.3481 0.1753 0.0000
vt 0.3481 0.2341 0.0000
vt 0.2990 0.2778 0.0000
vt 0.3156 0.1836 0.0000
vt 0.5824 0.6412 0.0000
vt 0.6614 0.6412 0.0000
vt 0.6614 0.7080 0.0000
vt 0.5824 0.7080 0.0000
vt 0.2576 0.1753 0.0000
vt 0.2576 0.2341 0.0000
vt 0.2085 0.2778 0.0000
vt 0.2251 0.1836 0.0000
vt 0.4693 0.5643 0.0000
vt 0.5483 0.5643 0.0000
vt 0.5483 0.6311 0.0000
vt 0.4693 0.6311 0.0000
vt 0.3481 0.5981 0.0000
vt 0.3481 0.6570 0.0000
vt 0.3156 0.6486 0.0000
vt 0.2990 0.5544 0.0000
vt 0.5010 0.5574 0.0000
vt 0.5010 0.4784 0.0000
vt 0.5507 0.4784 0.0000
vt 0.5507 0.5574 0.0000
vt 0.1793 0.6083 0.0000
vt 0.1499 0.5370 0.0000
vt 0.5598 0.6388 0.0000
vt 0.5598 0.5598 0.0000
vt 0.2404 0.2952 0.0000
vt 0.2697 0.2240 0.0000
vt 0.1499 0.2952 0.0000
vt 0.1793 0.2240 0.0000
vt 0.2697 0.6083 0.0000
vt 0.2404 0.5370 0.0000
vt 0.6006 0.4784 0.0000
vt 0.6006 0.5574 0.0000
vt 0.2843 0.3688 0.0000
vt 0.2296 0.3704 0.0000
vt 0.7950 0.5417 0.0000
vt 0.8740 0.5417 0.0000
vt 0.8740 0.6277 0.0000
vt 0.7950 0.6277 0.0000
vt 0.1391 0.4618 0.0000
vt 0.1939 0.4634 0.0000
vt 0.9645 0.6942 0.0000
vt 0.8855 0.6942 0.0000
vt 0.2843 0.4634 0.0000
vt 0.2296 0.4618 0.0000
vt 0.8740 0.7205 0.0000
vt 0.8740 0.8065 0.0000
vt 0.7950 0.8065 0.0000
vt 0.7950 0.7205 0.0000
vt 0.1391 0.3704 0.0000
vt 0.1939 0.3688 0.0000
vt 0.9645 0.7873 0.0000
vt 0.8855 0.7873 0.0000
vt 0.2843 0.4161 0.0000
vt 0.2296 0.4161 0.0000
vt 0.8740 0.6741 0.0000
vt 0.7950 0.6741 0.0000
vt 0.1391 0.4161 0.0000
vt 0.1939 0.4161 0.0000
vt 0.9645 0.7408 0.0000
vt 0.8855 0.7408 0.0000
vt 0.0635 0.6030 0.0000
vt 0.0326 0.5279 0.0000
vt 0.0439 0.5248 0.0000
vt 0.0732 0.5960 0.0000
vt 0.0215 0.4504 0.0000
vt 0.0330 0.4496 0.0000
vt 0.0215 0.4039 0.0000
vt 0.0330 0.4039 0.0000
vt 0.0215 0.3574 0.0000
vt 0.0330 0.3582 0.0000
vt 0.0326 0.2799 0.0000
vt 0.0439 0.2830 0.0000
vt 0.0635 0.2049 0.0000
vt 0.0732 0.2118 0.0000
vt 0.1135 0.1609 0.0000
vt 0.1191 0.1714 0.0000
vt 0.1632 0.1481 0.0000
vt 0.1516 0.1631 0.0000
vt 0.1632 0.2271 0.0000
vt 0.1516 0.2219 0.0000
vt 0.1133 0.2715 0.0000
vt 0.1025 0.2656 0.0000
vt 0.0994 0.3575 0.0000
vt 0.0878 0.3566 0.0000
vt 0.0994 0.4039 0.0000
vt 0.0878 0.4039 0.0000
vt 0.0994 0.4503 0.0000
vt 0.0878 0.4512 0.0000
vt 0.1133 0.5363 0.0000
vt 0.1025 0.5422 0.0000
vt 0.1632 0.5807 0.0000
vt 0.1516 0.5859 0.0000
vt 0.1632 0.6597 0.0000
vt 0.1516 0.6448 0.0000
vt 0.1135 0.6470 0.0000
vt 0.1191 0.6364 0.0000
vt 0.4058 0.0326 0.0000
vt 0.4808 0.0635 0.0000
vt 0.4739 0.0732 0.0000
vt 0.4027 0.0439 0.0000
vt 0.5248 0.1135 0.0000
vt 0.5143 0.1191 0.0000
vt 0.5375 0.1632 0.0000
vt 0.5226 0.1516 0.0000
vt 0.4585 0.1632 0.0000
vt 0.4638 0.1516 0.0000
vt 0.4142 0.1133 0.0000
vt 0.4201 0.1025 0.0000
vt 0.3282 0.0994 0.0000
vt 0.3291 0.0878 0.0000
vt 0.2818 0.0994 0.0000
vt 0.2818 0.0878 0.0000
vt 0.2354 0.0994 0.0000
vt 0.2344 0.0878 0.0000
vt 0.1494 0.1133 0.0000
vt 0.1434 0.1025 0.0000
vt 0.1050 0.1632 0.0000
vt 0.0998 0.1516 0.0000
vt 0.0260 0.1632 0.0000
vt 0.0409 0.1516 0.0000
vt 0.0387 0.1135 0.0000
vt 0.0493 0.1191 0.0000
vt 0.0827 0.0635 0.0000
vt 0.0896 0.0732 0.0000
vt 0.1578 0.0326 0.0000
vt 0.1609 0.0439 0.0000
vt 0.2352 0.0215 0.0000
vt 0.2361 0.0330 0.0000
vt 0.2818 0.0215 0.0000
vt 0.2818 0.0330 0.0000
vt 0.3283 0.0215 0.0000
vt 0.3275 0.0330 0.0000
vt 0.4103 0.9785 0.0000
vt 0.3390 0.9785 0.0000
vt 0.3390 0.9670 0.0000
vt 0.4103 0.9670 0.0000
vt 0.2638 0.9785 0.0000
vt 0.2638 0.9670 0.0000
vt 0.2181 0.9785 0.0000
vt 0.2181 0.9670 0.0000
vt 0.1724 0.9785 0.0000
vt 0.1724 0.9670 0.0000
vt 0.0972 0.9785 0.0000
vt 0.0972 0.9670 0.0000
vt 0.0260 0.9785 0.0000
vt 0.0260 0.9670 0.0000
vt 0.1753 0.1119 0.0000
vt 0.2211 0.1119 0.0000
vt 0.2211 0.1235 0.0000
vt 0.1753 0.1235 0.0000
vt 0.2536 0.1119 0.0000
vt 0.2536 0.1235 0.0000
vt 0.4314 0.5498 0.0000
vt 0.4314 0.4909 0.0000
vt 0.4430 0.4909 0.0000
vt 0.4430 0.5498 0.0000
vt 0.4056 0.4841 0.0000
vt 0.4056 0.5498 0.0000
vt 0.3940 0.5498 0.0000
vt 0.3940 0.4841 0.0000
vt 0.9785 0.5508 0.0000
vt 0.9785 0.6418 0.0000
vt 0.9670 0.6418 0.0000
vt 0.9670 0.5508 0.0000
vt 0.9785 0.6891 0.0000
vt 0.9670 0.6891 0.0000
vt 0.9785 0.7364 0.0000
vt 0.9670 0.7364 0.0000
vt 0.9785 0.8274 0.0000
vt 0.9670 0.8274 0.0000
vt 0.4190 0.5498 0.0000
vt 0.4190 0.4841 0.0000
vt 0.4305 0.4841 0.0000
vt 0.4305 0.5498 0.0000
vt 0.3940 0.4137 0.0000
vt 0.4528 0.4137 0.0000
vt 0.4528 0.4253 0.0000
vt 0.3940 0.4253 0.0000
vt 0.2536 0.1371 0.0000
vt 0.2211 0.1371 0.0000
vt 0.2211 0.1255 0.0000
vt 0.2536 0.1255 0.0000
vt 0.1753 0.1371 0.0000
vt 0.1753 0.1255 0.0000
vt 0.9785 0.4159 0.0000
vt 0.9785 0.4872 0.0000
vt 0.9670 0.4872 0.0000
vt 0.9670 0.4159 0.0000
vt 0.0215 0.2572 0.0000
vt 0.0215 0.1961 0.0000
vt 0.0330 0.1961 0.0000
vt 0.0330 0.2572 0.0000
vt 0.0215 0.1662 0.0000
vt 0.0330 0.1662 0.0000
vt 0.4528 0.4378 0.0000
vt 0.3940 0.4378 0.0000
vt 0.3940 0.4262 0.0000
vt 0.4528 0.4262 0.0000
vt 0.2276 0.2748 0.0000
vt 0.2276 0.3405 0.0000
vt 0.2160 0.3405 0.0000
vt 0.2160 0.2748 0.0000
vt 0.2276 0.4119 0.0000
vt 0.2160 0.4119 0.0000
vt 0.1165 0.4559 0.0000
vt 0.1165 0.4086 0.0000
vt 0.1280 0.4086 0.0000
vt 0.1280 0.4559 0.0000
vt 0.1165 0.3613 0.0000
vt 0.1280 0.3613 0.0000
vt 0.1165 0.2703 0.0000
vt 0.1280 0.2703 0.0000
vt 0.4065 0.5498 0.0000
vt 0.4065 0.4841 0.0000
vt 0.4181 0.4841 0.0000
vt 0.4181 0.5498 0.0000
vt 0.4528 0.4502 0.0000
vt 0.3940 0.4502 0.0000
vt 0.3940 0.4387 0.0000
vt 0.4528 0.4387 0.0000
vt 0.9785 0.8403 0.0000
vt 0.9785 0.8738 0.0000
vt 0.9670 0.8738 0.0000
vt 0.9670 0.8403 0.0000
vt 0.9785 0.9283 0.0000
vt 0.9670 0.9283 0.0000
vt 0.9785 0.1029 0.0000
vt 0.9785 0.1741 0.0000
vt 0.9670 0.1741 0.0000
vt 0.9670 0.1029 0.0000
vt 0.9785 0.2493 0.0000
vt 0.9670 0.2493 0.0000
vt 0.9785 0.2950 0.0000
vt 0.9670 0.2950 0.0000
vt 0.9785 0.3407 0.0000
vt 0.9670 0.3407 0.0000
# 408 texture coords

o Box007
g Box007
usemtl wire_076141171
s 1
f 1/1/1 2/2/2 3/3/3 4/4/4 
f 5/5/5 6/6/6 7/7/7 8/8/8 
s 2
f 1/9/1 4/10/4 9/11/9 10/12/10 
s 4
f 4/13/4 3/14/3 11/15/11 9/16/9 
s 2
f 3/17/3 2/18/2 12/19/12 11/20/11 
s 4
f 2/21/2 1/22/1 10/23/10 12/24/12 
s 1
f 13/25/1 14/26/2 15/27/3 16/28/4 
f 17/29/13 18/30/14 19/31/15 20/32/16 
s 2
f 13/33/1 16/34/4 21/35/9 22/36/10 
s 4
f 16/37/4 15/38/3 23/39/11 21/40/9 
s 2
f 15/41/3 14/42/2 24/43/12 23/44/11 
s 4
f 14/45/2 13/46/1 22/47/10 24/48/12 
s 1
f 10/49/10 9/50/9 25/51/17 26/52/18 
f 9/50/9 11/53/11 27/54/19 25/51/17 
f 11/53/11 12/55/12 28/56/20 27/54/19 
f 12/55/12 10/49/10 26/52/18 28/56/20 
f 22/57/10 21/58/9 29/59/17 30/60/18 
f 21/58/9 23/61/11 31/62/19 29/59/17 
f 23/61/11 24/63/12 32/64/20 31/62/19 
f 24/63/12 22/57/10 30/60/18 32/64/20 
s 2
f 26/65/18 25/66/17 33/67/21 34/68/22 
s 4
f 25/69/17 27/70/19 35/71/23 33/72/21 
s 2
f 27/73/19 28/74/20 36/75/24 35/76/23 
s 4
f 28/77/20 26/78/18 34/79/22 36/80/24 
s 2
f 30/81/18 29/82/17 37/83/21 38/84/22 
s 4
f 29/85/17 31/86/19 39/87/23 37/88/21 
s 2
f 31/89/19 32/90/20 40/91/24 39/92/23 
s 4
f 32/93/20 30/94/18 38/95/22 40/96/24 
s 1
f 41/97/4 42/98/9 43/99/10 44/100/1 
s 2
f 45/101/3 46/102/11 42/103/9 41/104/4 
s 1
f 47/105/2 48/106/12 46/107/11 45/108/3 
s 2
f 44/109/1 43/110/10 48/111/12 47/112/2 
s 1
f 49/113/4 50/114/9 51/115/10 52/116/1 
s 2
f 53/117/3 54/118/11 50/119/9 49/120/4 
s 1
f 55/121/2 56/122/12 54/123/11 53/124/3 
s 2
f 52/125/1 51/126/10 56/127/12 55/128/2 
s 4
f 57/129/25 58/130/26 43/131/10 42/132/9 
f 58/130/26 59/133/27 48/134/12 43/131/10 
f 59/133/27 60/135/28 46/136/11 48/134/12 
f 60/135/28 57/129/25 42/132/9 46/136/11 
s 8
f 34/137/22 33/138/21 41/139/4 44/140/1 
f 33/138/21 35/141/23 45/142/3 41/139/4 
f 35/141/23 36/143/24 47/144/2 45/142/3 
f 36/143/24 34/137/22 44/140/1 47/144/2 
s 4
f 61/145/29 62/146/30 51/147/10 50/148/9 
f 62/146/30 63/149/31 56/150/12 51/147/10 
f 63/149/31 64/151/32 54/152/11 56/150/12 
f 64/151/32 61/145/29 50/148/9 54/152/11 
s 8
f 38/153/22 37/154/21 49/155/4 52/156/1 
f 37/154/21 39/157/23 53/158/3 49/155/4 
f 39/157/23 40/159/24 55/160/2 53/158/3 
f 40/159/24 38/153/22 52/156/1 55/160/2 
s 2
f 65/161/33 66/162/34 67/163/35 68/164/36 
s 1
f 57/165/25 60/166/28 69/167/37 70/168/38 
s 2
f 71/169/39 72/170/40 73/171/41 74/172/42 
s 1
f 59/173/27 58/174/26 75/175/43 76/176/44 
s 2
f 77/177/45 78/178/46 79/179/47 80/180/48 
s 1
f 61/181/29 64/182/32 81/183/49 82/184/50 
s 2
f 83/185/51 84/186/52 85/187/53 86/188/54 
s 1
f 63/189/31 62/190/30 87/191/55 88/192/56 
s 2
f 67/163/35 89/193/57 90/194/58 68/164/36 
s 1
f 69/167/37 7/195/7 6/196/6 70/168/38 
s 2
f 73/171/41 91/197/59 92/198/60 74/172/42 
f 79/179/47 93/199/61 94/200/62 80/180/48 
f 85/187/53 95/201/63 96/202/64 86/188/54 
s 1
f 87/191/55 17/203/13 20/204/16 88/192/56 
s 2
f 91/197/59 73/171/41 97/205/65 98/206/66 
s 4
f 76/207/44 75/208/43 99/209/67 100/210/68 
s 2
f 68/164/36 90/194/58 101/211/69 102/212/70 
s 1
f 5/5/5 8/8/8 103/213/71 104/214/72 
s 2
f 105/215/73 86/188/54 96/202/64 106/216/74 
s 4
f 107/217/75 82/218/50 81/219/49 108/220/76 
s 2
f 109/221/77 93/199/61 79/179/47 110/222/78 
s 1
f 111/223/79 19/31/15 18/30/14 112/224/80 
s 2
f 98/206/66 97/205/65 113/225/81 114/226/82 
s 4
f 100/210/68 99/209/67 115/227/83 116/228/82 
s 2
f 102/212/70 101/211/69 117/229/83 118/230/84 
s 1
f 104/214/72 103/213/71 119/231/81 120/232/84 
s 2
f 105/215/73 106/216/74 114/226/82 113/225/81 
s 4
f 107/217/75 108/220/76 116/228/82 115/227/83 
s 2
f 109/221/77 110/222/78 118/230/84 117/229/83 
s 1
f 111/223/79 112/224/80 120/232/84 119/231/81 
s off
f 6/233/6 5/234/5 121/235/85 122/236/86 
f 5/234/5 104/237/72 123/238/87 121/235/85 
f 104/237/72 120/239/84 124/240/83 123/238/87 
f 120/239/84 112/241/80 125/242/88 124/240/83 
f 112/241/80 18/243/14 126/244/89 125/242/88 
f 18/243/14 17/245/13 127/246/90 126/244/89 
f 17/245/13 87/247/55 128/248/91 127/246/90 
f 87/247/55 62/249/30 129/250/92 128/248/91 
f 62/249/30 61/251/29 130/252/93 129/250/92 
f 61/251/29 82/253/50 131/254/94 130/252/93 
f 82/253/50 107/255/75 132/256/95 131/254/94 
f 107/255/75 115/257/83 133/258/84 132/256/95 
f 115/257/83 99/259/67 134/260/96 133/258/84 
f 99/259/67 75/261/43 135/262/97 134/260/96 
f 75/261/43 58/263/26 136/264/98 135/262/97 
f 58/263/26 57/265/25 137/266/99 136/264/98 
f 57/265/25 70/267/38 138/268/100 137/266/99 
f 70/267/38 6/233/6 122/236/86 138/268/100 
f 8/269/8 7/270/7 139/271/101 140/272/102 
f 7/270/7 69/273/37 141/274/103 139/271/101 
f 69/273/37 60/275/28 142/276/104 141/274/103 
f 60/275/28 59/277/27 143/278/105 142/276/104 
f 59/277/27 76/279/44 144/280/106 143/278/105 
f 76/279/44 100/281/68 145/282/107 144/280/106 
f 100/281/68 116/283/82 146/284/81 145/282/107 
f 116/283/82 108/285/76 147/286/108 146/284/81 
f 108/285/76 81/287/49 148/288/109 147/286/108 
f 81/287/49 64/289/32 149/290/110 148/288/109 
f 64/289/32 63/291/31 150/292/111 149/290/110 
f 63/291/31 88/293/56 151/294/112 150/292/111 
f 88/293/56 20/295/16 152/296/113 151/294/112 
f 20/295/16 19/297/15 153/298/114 152/296/113 
f 19/297/15 111/299/79 154/300/115 153/298/114 
f 111/299/79 119/301/81 155/302/82 154/300/115 
f 119/301/81 103/303/71 156/304/116 155/302/82 
f 103/303/71 8/269/8 140/272/102 156/304/116 
f 122/305/86 121/306/85 90/307/58 89/308/57 
f 121/306/85 123/309/87 101/310/69 90/307/58 
f 123/309/87 124/311/83 117/312/83 101/310/69 
f 124/311/83 125/313/88 109/314/77 117/312/83 
f 125/313/88 126/315/89 93/316/61 109/314/77 
f 126/315/89 127/317/90 94/318/62 93/316/61 
f 127/319/90 128/320/91 80/321/48 94/322/62 
f 128/320/91 129/323/92 77/324/45 80/321/48 
f 129/325/92 130/326/93 78/327/46 77/328/45 
f 130/329/93 131/330/94 79/331/47 78/332/46 
f 131/333/94 132/334/95 110/335/78 79/336/47 
f 132/334/95 133/337/84 118/338/84 110/335/78 
f 133/337/84 134/339/96 102/340/70 118/338/84 
f 134/339/96 135/341/97 68/342/36 102/340/70 
f 135/343/97 136/344/98 65/345/33 68/346/36 
f 136/347/98 137/348/99 66/349/34 65/350/33 
f 137/351/99 138/352/100 67/353/35 66/354/34 
f 138/352/100 122/355/86 89/356/57 67/353/35 
f 140/357/102 139/358/101 92/359/60 91/360/59 
f 139/361/101 141/362/103 74/363/42 92/364/60 
f 141/362/103 142/365/104 71/366/39 74/363/42 
f 142/367/104 143/368/105 72/369/40 71/370/39 
f 143/371/105 144/372/106 73/373/41 72/374/40 
f 144/372/106 145/375/107 97/376/65 73/373/41 
f 145/377/107 146/378/81 113/379/81 97/380/65 
f 146/378/81 147/381/108 105/382/73 113/379/81 
f 147/381/108 148/383/109 86/384/54 105/382/73 
f 148/385/109 149/386/110 83/387/51 86/388/54 
f 149/389/110 150/390/111 84/391/52 83/392/51 
f 150/393/111 151/394/112 85/395/53 84/396/52 
f 151/394/112 152/397/113 95/398/63 85/395/53 
f 152/399/113 153/400/114 96/401/64 95/402/63 
f 153/400/114 154/403/115 106/404/74 96/401/64 
f 154/403/115 155/405/82 114/406/82 106/404/74 
f 155/405/82 156/407/116 98/408/66 114/406/82 
f 156/407/116 140/357/102 91/360/59 98/408/66 
# 154 polygons

