# 3ds Max Wavefront OBJ Exporter v0.99 - (c)2007 guruware
# File Created: 04.05.2026 21:46:10

mtllib ???.mtl

#
# object Cylinder009
#

v  31.3853 0.0000 18.1203
v  18.1203 0.0000 31.3853
v  -0.0000 0.0000 36.2406
v  -18.1203 0.0000 31.3853
v  -31.3853 0.0000 18.1203
v  -36.2406 0.0000 -0.0000
v  -31.3853 0.0000 -18.1203
v  -18.1203 0.0000 -31.3853
v  -0.0000 0.0000 -36.2406
v  18.1203 0.0000 -31.3853
v  31.3853 0.0000 -18.1203
v  36.2406 0.0000 -0.0000
v  31.3853 9.4537 -18.1203
v  36.2406 9.4537 -0.0000
v  18.1203 9.4537 -31.3853
v  -0.0000 9.4537 -36.2406
v  -18.1203 9.4537 -31.3853
v  -31.3853 9.4537 -18.1203
v  -36.2406 9.4537 -0.0000
v  -31.3853 9.4537 18.1203
v  -18.1203 9.4537 31.3853
v  -0.0000 9.4537 36.2406
v  18.1203 9.4537 31.3853
v  31.3853 9.4537 18.1203
v  4.1545 263.8184 2.3986
v  4.7973 263.8184 -0.0000
v  4.1545 263.8184 -2.3986
v  2.3986 263.8184 -4.1545
v  -0.0000 263.8184 -4.7973
v  -2.3986 263.8184 -4.1545
v  -4.1545 263.8184 -2.3986
v  -4.7973 263.8184 -0.0000
v  -4.1545 263.8184 2.3986
v  -2.3986 263.8184 4.1545
v  0.0000 263.8184 4.7973
v  2.3986 263.8184 4.1546
v  31.3853 110.4706 -18.1203
v  31.3853 120.6109 -18.1203
v  36.2406 120.6109 -0.0000
v  36.2406 110.4706 -0.0000
v  18.1203 110.4706 -31.3853
v  18.1203 120.6109 -31.3853
v  -0.0000 110.4706 -36.2406
v  -0.0000 120.6109 -36.2406
v  -18.1203 110.4706 -31.3853
v  -18.1203 120.6109 -31.3853
v  -31.3853 110.4706 -18.1203
v  -31.3853 120.6109 -18.1203
v  -36.2406 110.4706 -0.0000
v  -36.2406 120.6109 -0.0000
v  -31.3853 110.4706 18.1203
v  -31.3853 120.6109 18.1203
v  -18.1203 110.4706 31.3853
v  -18.1203 120.6109 31.3853
v  -0.0000 110.4706 36.2406
v  -0.0000 120.6109 36.2406
v  18.1203 110.4706 31.3853
v  18.1203 120.6109 31.3853
v  31.3853 110.4706 18.1203
v  31.3853 120.6109 18.1203
v  27.5910 120.6109 -15.9297
v  31.8593 120.6109 -0.0000
v  15.9297 120.6109 -27.5910
v  -0.0000 120.6109 -31.8593
v  -15.9297 120.6109 -27.5910
v  -27.5910 120.6109 -15.9297
v  -31.8593 120.6109 -0.0000
v  -27.5910 120.6109 15.9296
v  -15.9297 120.6109 27.5910
v  -0.0000 120.6109 31.8593
v  15.9296 120.6109 27.5910
v  27.5910 120.6109 15.9297
v  25.1570 129.1921 -14.5244
v  29.0488 129.1921 -0.0000
v  14.5244 129.1921 -25.1570
v  -0.0000 129.1921 -29.0488
v  -14.5244 129.1921 -25.1570
v  -25.1570 129.1921 -14.5244
v  -29.0488 129.1921 -0.0000
v  -25.1570 129.1921 14.5244
v  -14.5244 129.1921 25.1570
v  -0.0000 129.1921 29.0488
v  14.5244 129.1921 25.1570
v  25.1570 129.1921 14.5244
v  7.1549 129.1921 -4.1309
v  8.2618 129.1921 -0.0000
v  4.1309 129.1921 -7.1549
v  0.0000 129.1921 -8.2618
v  -4.1309 129.1921 -7.1549
v  -7.1549 129.1921 -4.1309
v  -8.2618 129.1921 -0.0000
v  -7.1549 129.1921 4.1309
v  -4.1309 129.1921 7.1549
v  -0.0000 129.1921 8.2618
v  4.1309 129.1921 7.1549
v  7.1549 129.1921 4.1309
v  7.1549 133.0534 -4.1309
v  8.2618 133.0534 -0.0000
v  4.1309 133.0534 -7.1549
v  0.0000 133.0534 -8.2618
v  -4.1309 133.0534 -7.1549
v  -7.1549 133.0534 -4.1309
v  -8.2618 133.0534 -0.0000
v  -7.1549 133.0534 4.1309
v  -4.1309 133.0534 7.1549
v  -0.0000 133.0534 8.2618
v  4.1309 133.0534 7.1549
v  7.1549 133.0534 4.1309
v  4.1545 133.0534 -2.3986
v  4.7973 133.0534 -0.0000
v  2.3986 133.0534 -4.1545
v  -0.0000 133.0534 -4.7973
v  -2.3986 133.0534 -4.1545
v  -4.1545 133.0534 -2.3986
v  -4.7973 133.0534 -0.0000
v  -4.1545 133.0534 2.3986
v  -2.3986 133.0534 4.1545
v  0.0000 133.0534 4.7973
v  2.3986 133.0534 4.1546
v  4.1545 133.0534 2.3986
# 120 vertices

vn 0.6557 -0.6532 0.3786
vn 0.3786 -0.6532 0.6558
vn -0.0000 -0.6533 0.7571
vn -0.3786 -0.6532 0.6557
vn -0.6557 -0.6533 0.3785
vn -0.7572 -0.6532 -0.0000
vn -0.6557 -0.6533 -0.3785
vn -0.3785 -0.6533 -0.6557
vn -0.0000 -0.6533 -0.7571
vn 0.3785 -0.6533 -0.6557
vn 0.6557 -0.6532 -0.3786
vn 0.7572 -0.6532 0.0000
vn 0.6558 0.6532 -0.3786
vn 0.7571 0.6533 0.0000
vn 0.3786 0.6533 -0.6557
vn 0.0000 0.6532 -0.7572
vn -0.3786 0.6532 -0.6557
vn -0.6557 0.6533 -0.3786
vn -0.7571 0.6533 -0.0000
vn -0.6557 0.6532 0.3786
vn -0.3785 0.6532 0.6557
vn 0.0000 0.6533 0.7571
vn 0.3786 0.6532 0.6557
vn 0.6558 0.6532 0.3786
vn 0.6557 0.6532 0.3786
vn 0.7572 0.6532 -0.0000
vn 0.6557 0.6532 -0.3786
vn 0.3786 0.6532 -0.6557
vn -0.3785 0.6533 -0.6557
vn -0.6557 0.6533 -0.3785
vn -0.6557 0.6533 0.3785
vn -0.3785 0.6533 0.6557
vn -0.0000 0.6533 0.7571
vn 0.3786 0.6533 0.6557
vn 0.6557 -0.6533 -0.3786
vn 0.6557 0.6533 -0.3786
vn 0.7571 -0.6533 0.0000
vn 0.3786 -0.6533 -0.6557
vn -0.0000 0.6533 -0.7571
vn -0.3786 -0.6532 -0.6557
vn -0.6557 -0.6533 -0.3786
vn -0.7571 -0.6533 -0.0000
vn -0.3785 -0.6533 0.6557
vn 0.0000 -0.6533 0.7571
vn 0.3786 -0.6532 0.6557
vn 0.6557 -0.6533 0.3786
vn 0.6557 0.6533 0.3786
vn 0.4463 0.8570 -0.2577
vn 0.5154 0.8570 0.0000
vn 0.2577 0.8570 -0.4463
vn -0.0000 0.8570 -0.5154
vn -0.2577 0.8570 -0.4463
vn -0.4463 0.8570 -0.2577
vn -0.5154 0.8570 -0.0000
vn -0.4463 0.8570 0.2577
vn -0.2577 0.8570 0.4463
vn -0.0000 0.8570 0.5154
vn 0.2577 0.8570 0.4463
vn 0.4463 0.8570 0.2577
vn 0.5576 0.7651 -0.3220
vn 0.6439 0.7651 0.0000
vn 0.3220 0.7651 -0.5576
vn -0.0000 0.7651 -0.6439
vn -0.3220 0.7651 -0.5576
vn -0.5576 0.7651 -0.3220
vn -0.6439 0.7651 -0.0000
vn -0.5576 0.7651 0.3220
vn -0.3220 0.7651 0.5576
vn -0.0000 0.7651 0.6439
vn 0.3220 0.7651 0.5576
vn 0.5576 0.7651 0.3220
vn 0.5523 0.7703 -0.3189
vn 0.6377 0.7703 -0.0000
vn 0.3189 0.7703 -0.5523
vn 0.0000 0.7703 -0.6377
vn -0.3188 0.7703 -0.5523
vn -0.5522 0.7703 -0.3188
vn -0.6377 0.7703 0.0000
vn -0.5523 0.7703 0.3188
vn -0.3188 0.7703 0.5522
vn 0.0000 0.7703 0.6377
vn 0.3189 0.7703 0.5523
vn 0.5523 0.7703 0.3189
vn -0.7571 0.6533 0.0000
vn -0.6376 0.7703 -0.0000
vn -0.5522 0.7703 0.3188
vn -0.0000 0.7703 0.6376
vn 0.3189 0.7703 0.5522
# 88 vertex normals

vt 0.5791 0.9528 0.0000
vt 0.5460 0.8977 0.0000
vt 0.5449 0.8335 0.0000
vt 0.5760 0.7774 0.0000
vt 0.6311 0.7443 0.0000
vt 0.6953 0.7432 0.0000
vt 0.7514 0.7743 0.0000
vt 0.7845 0.8293 0.0000
vt 0.7856 0.8935 0.0000
vt 0.7545 0.9497 0.0000
vt 0.6994 0.9828 0.0000
vt 0.6352 0.9839 0.0000
vt 0.0749 0.6657 0.0000
vt 0.0749 0.7553 0.0000
vt 0.0282 0.7553 0.0000
vt 0.0282 0.6657 0.0000
vt 0.0749 0.8208 0.0000
vt 0.0282 0.8208 0.0000
vt 0.0749 0.9104 0.0000
vt 0.0282 0.9104 0.0000
vt 0.0749 1.0000 0.0000
vt 0.0282 1.0000 0.0000
vt 0.0749 0.0000 0.0000
vt 0.0749 0.0656 0.0000
vt 0.0282 0.0656 0.0000
vt 0.0282 0.0000 0.0000
vt 0.0749 0.1552 0.0000
vt 0.0282 0.1552 0.0000
vt 0.0749 0.2447 0.0000
vt 0.0282 0.2447 0.0000
vt 0.0749 0.3103 0.0000
vt 0.0282 0.3103 0.0000
vt 0.0749 0.4031 0.0000
vt 0.0282 0.4031 0.0000
vt 0.0749 0.4834 0.0000
vt 0.0282 0.4834 0.0000
vt 0.0749 0.5761 0.0000
vt 0.0282 0.5761 0.0000
vt 0.6898 0.0937 0.0000
vt 0.6896 0.1051 0.0000
vt 0.6837 0.1149 0.0000
vt 0.6737 0.1204 0.0000
vt 0.6623 0.1202 0.0000
vt 0.6525 0.1144 0.0000
vt 0.6470 0.1044 0.0000
vt 0.6472 0.0930 0.0000
vt 0.6531 0.0832 0.0000
vt 0.6631 0.0777 0.0000
vt 0.6745 0.0779 0.0000
vt 0.6843 0.0837 0.0000
vt 0.1378 0.7500 0.0000
vt 0.0866 0.7500 0.0000
vt 0.0866 0.6585 0.0000
vt 0.1378 0.6585 0.0000
vt 0.1378 0.8170 0.0000
vt 0.0866 0.8170 0.0000
vt 0.1378 0.9085 0.0000
vt 0.0866 0.9085 0.0000
vt 0.1378 1.0000 0.0000
vt 0.0866 1.0000 0.0000
vt 0.1378 0.0670 0.0000
vt 0.0866 0.0670 0.0000
vt 0.0866 0.0000 0.0000
vt 0.1378 0.0000 0.0000
vt 0.1378 0.1585 0.0000
vt 0.0866 0.1585 0.0000
vt 0.1378 0.2500 0.0000
vt 0.0866 0.2500 0.0000
vt 0.1378 0.3170 0.0000
vt 0.0866 0.3170 0.0000
vt 0.1378 0.4085 0.0000
vt 0.0866 0.4085 0.0000
vt 0.1378 0.5000 0.0000
vt 0.0866 0.5000 0.0000
vt 0.1378 0.5670 0.0000
vt 0.0866 0.5670 0.0000
vt 0.8403 0.8355 0.0000
vt 0.7857 0.8052 0.0000
vt 0.7535 0.7517 0.0000
vt 0.7524 0.6892 0.0000
vt 0.7827 0.6346 0.0000
vt 0.8363 0.6024 0.0000
vt 0.8987 0.6013 0.0000
vt 0.9534 0.6316 0.0000
vt 0.9856 0.6851 0.0000
vt 0.9867 0.7476 0.0000
vt 0.9564 0.8023 0.0000
vt 0.9028 0.8344 0.0000
vt 0.7396 0.6833 0.0000
vt 0.6883 0.7117 0.0000
vt 0.6297 0.7107 0.0000
vt 0.5795 0.6805 0.0000
vt 0.5511 0.6293 0.0000
vt 0.5521 0.5707 0.0000
vt 0.5823 0.5205 0.0000
vt 0.6336 0.4920 0.0000
vt 0.6922 0.4931 0.0000
vt 0.7424 0.5233 0.0000
vt 0.7708 0.5745 0.0000
vt 0.7698 0.6331 0.0000
vt 0.9775 0.3840 0.0000
vt 0.9332 0.4578 0.0000
vt 0.9192 0.4434 0.0000
vt 0.9582 0.3784 0.0000
vt 0.8578 0.4996 0.0000
vt 0.8529 0.4801 0.0000
vt 0.7716 0.4981 0.0000
vt 0.7772 0.4788 0.0000
vt 0.6978 0.4537 0.0000
vt 0.7122 0.4398 0.0000
vt 0.6560 0.3784 0.0000
vt 0.6755 0.3735 0.0000
vt 0.6575 0.2922 0.0000
vt 0.6768 0.2977 0.0000
vt 0.7019 0.2183 0.0000
vt 0.7158 0.2328 0.0000
vt 0.7772 0.1766 0.0000
vt 0.7821 0.1961 0.0000
vt 0.8634 0.1781 0.0000
vt 0.8578 0.1974 0.0000
vt 0.9373 0.2224 0.0000
vt 0.9228 0.2364 0.0000
vt 0.9790 0.2978 0.0000
vt 0.9595 0.3027 0.0000
vt 0.5398 0.5778 0.0000
vt 0.5399 0.6654 0.0000
vt 0.4918 0.6654 0.0000
vt 0.4920 0.5778 0.0000
vt 0.5400 0.7500 0.0000
vt 0.4918 0.7500 0.0000
vt 0.5398 0.8326 0.0000
vt 0.4919 0.8326 0.0000
vt 0.5400 0.9153 0.0000
vt 0.4917 0.9153 0.0000
vt 0.5401 1.0000 0.0000
vt 0.4916 1.0000 0.0000
vt 0.5398 0.0000 0.0000
vt 0.5398 0.0824 0.0000
vt 0.4920 0.0824 0.0000
vt 0.4920 0.0000 0.0000
vt 0.5399 0.1648 0.0000
vt 0.4918 0.1648 0.0000
vt 0.5398 0.2491 0.0000
vt 0.4920 0.2491 0.0000
vt 0.5395 0.3320 0.0000
vt 0.4922 0.3320 0.0000
vt 0.5398 0.4111 0.0000
vt 0.4920 0.4111 0.0000
vt 0.5399 0.4954 0.0000
vt 0.4918 0.4954 0.0000
vt 0.8562 0.2089 0.0000
vt 0.9154 0.2445 0.0000
vt 0.8467 0.3108 0.0000
vt 0.8298 0.3007 0.0000
vt 0.9489 0.3049 0.0000
vt 0.8562 0.3280 0.0000
vt 0.9477 0.3740 0.0000
vt 0.8559 0.3476 0.0000
vt 0.9121 0.4332 0.0000
vt 0.8458 0.3645 0.0000
vt 0.8517 0.4667 0.0000
vt 0.8286 0.3740 0.0000
vt 0.7826 0.4654 0.0000
vt 0.8089 0.3737 0.0000
vt 0.7234 0.4299 0.0000
vt 0.7921 0.3635 0.0000
vt 0.6899 0.3695 0.0000
vt 0.7826 0.3464 0.0000
vt 0.6911 0.3004 0.0000
vt 0.7829 0.3267 0.0000
vt 0.7267 0.2412 0.0000
vt 0.7930 0.3099 0.0000
vt 0.7871 0.2077 0.0000
vt 0.8102 0.3003 0.0000
vt 0.3916 0.5959 0.0000
vt 0.3916 0.5000 0.0000
vt 0.4782 0.5000 0.0000
vt 0.4782 0.5959 0.0000
vt 0.3916 0.4322 0.0000
vt 0.4782 0.4322 0.0000
vt 0.3916 0.3395 0.0000
vt 0.4782 0.3395 0.0000
vt 0.3916 0.2468 0.0000
vt 0.4782 0.2468 0.0000
vt 0.3916 0.1790 0.0000
vt 0.4782 0.1790 0.0000
vt 0.3916 0.0831 0.0000
vt 0.4782 0.0831 0.0000
vt 0.3916 0.0000 0.0000
vt 0.4782 0.0000 0.0000
vt 0.3916 1.0000 0.0000
vt 0.3916 0.9322 0.0000
vt 0.4782 0.9322 0.0000
vt 0.4782 1.0000 0.0000
vt 0.3916 0.8395 0.0000
vt 0.4782 0.8395 0.0000
vt 0.3916 0.7468 0.0000
vt 0.4782 0.7468 0.0000
vt 0.3916 0.6790 0.0000
vt 0.4782 0.6790 0.0000
vt 0.6716 0.1971 0.0000
vt 0.6621 0.2143 0.0000
vt 0.6506 0.2033 0.0000
vt 0.6562 0.1933 0.0000
vt 0.6452 0.2244 0.0000
vt 0.6409 0.2091 0.0000
vt 0.6256 0.2248 0.0000
vt 0.6294 0.2093 0.0000
vt 0.6084 0.2153 0.0000
vt 0.6195 0.2038 0.0000
vt 0.5983 0.1984 0.0000
vt 0.6136 0.1940 0.0000
vt 0.5980 0.1788 0.0000
vt 0.6134 0.1826 0.0000
vt 0.6075 0.1616 0.0000
vt 0.6189 0.1727 0.0000
vt 0.6243 0.1515 0.0000
vt 0.6287 0.1668 0.0000
vt 0.6440 0.1511 0.0000
vt 0.6401 0.1666 0.0000
vt 0.6611 0.1607 0.0000
vt 0.6501 0.1721 0.0000
vt 0.6713 0.1775 0.0000
vt 0.6560 0.1819 0.0000
vt 0.2252 0.0000 0.0000
vt 0.2435 0.0000 0.0000
vt 0.2435 1.0000 0.0000
vt 0.2252 1.0000 0.0000
vt 0.3396 0.0000 0.0000
vt 0.3586 0.0000 0.0000
vt 0.3586 1.0000 0.0000
vt 0.3396 1.0000 0.0000
vt 0.3750 0.0000 0.0000
vt 0.3750 1.0000 0.0000
vt 0.0000 0.0000 0.0000
vt 0.0190 0.0000 0.0000
vt 0.0190 1.0000 0.0000
vt 0.0000 1.0000 0.0000
vt 0.2616 0.0000 0.0000
vt 0.2750 0.0000 0.0000
vt 0.2750 1.0000 0.0000
vt 0.2616 1.0000 0.0000
vt 0.2934 0.0000 0.0000
vt 0.2934 1.0000 0.0000
vt 0.3117 0.0000 0.0000
vt 0.3117 1.0000 0.0000
vt 0.3251 0.0000 0.0000
vt 0.3251 1.0000 0.0000
vt 0.1467 0.0000 0.0000
vt 0.1651 0.0000 0.0000
vt 0.1651 1.0000 0.0000
vt 0.1467 1.0000 0.0000
vt 0.1834 0.0000 0.0000
vt 0.1834 1.0000 0.0000
vt 0.1968 0.0000 0.0000
vt 0.1968 1.0000 0.0000
vt 0.2068 0.0000 0.0000
vt 0.2068 1.0000 0.0000
# 258 texture coords

o Cylinder009
g Cylinder009
usemtl wire_056086164
s 1
f 1/1/1 2/2/2 3/3/3 4/4/4 5/5/5 6/6/6 7/7/7 8/8/8 9/9/9 10/10/10 11/11/11 12/12/12 
s 8
f 12/13/12 11/14/11 13/15/13 14/16/14 
f 11/14/11 10/17/10 15/18/15 13/15/13 
f 10/17/10 9/19/9 16/20/16 15/18/15 
f 9/19/9 8/21/8 17/22/17 16/20/16 
f 8/23/8 7/24/7 18/25/18 17/26/17 
f 7/24/7 6/27/6 19/28/19 18/25/18 
f 6/27/6 5/29/5 20/30/20 19/28/19 
f 5/29/5 4/31/4 21/32/21 20/30/20 
f 4/31/4 3/33/3 22/34/22 21/32/21 
f 3/33/3 2/35/2 23/36/23 22/34/22 
f 2/35/2 1/37/1 24/38/24 23/36/23 
f 1/37/1 12/13/12 14/16/14 24/38/24 
s 1
f 25/39/25 26/40/26 27/41/27 28/42/28 29/43/16 30/44/29 31/45/30 32/46/19 33/47/31 34/48/32 35/49/33 36/50/34 
s 8
f 37/51/35 38/52/36 39/53/14 40/54/37 
f 41/55/38 42/56/15 38/52/36 37/51/35 
f 43/57/9 44/58/39 42/56/15 41/55/38 
f 45/59/40 46/60/17 44/58/39 43/57/9 
f 47/61/41 48/62/18 46/63/17 45/64/40 
f 49/65/42 50/66/19 48/62/18 47/61/41 
f 51/67/5 52/68/31 50/66/19 49/65/42 
f 53/69/43 54/70/32 52/68/31 51/67/5 
f 55/71/44 56/72/22 54/70/32 53/69/43 
f 57/73/45 58/74/23 56/72/22 55/71/44 
f 59/75/46 60/76/47 58/74/23 57/73/45 
f 40/54/37 39/53/14 60/76/47 59/75/46 
s 2
f 40/77/37 59/78/46 57/79/45 55/80/44 53/81/43 51/82/5 49/83/42 47/84/41 45/85/40 43/86/9 41/87/38 37/88/35 
s 4
f 13/89/13 15/90/15 16/91/16 17/92/17 18/93/18 19/94/19 20/95/20 21/96/21 22/97/22 23/98/23 24/99/24 14/100/14 
s off
f 39/101/14 38/102/36 61/103/48 62/104/49 
f 38/102/36 42/105/15 63/106/50 61/103/48 
f 42/105/15 44/107/39 64/108/51 63/106/50 
f 44/107/39 46/109/17 65/110/52 64/108/51 
f 46/109/17 48/111/18 66/112/53 65/110/52 
f 48/111/18 50/113/19 67/114/54 66/112/53 
f 50/113/19 52/115/31 68/116/55 67/114/54 
f 52/115/31 54/117/32 69/118/56 68/116/55 
f 54/117/32 56/119/22 70/120/57 69/118/56 
f 56/119/22 58/121/23 71/122/58 70/120/57 
f 58/121/23 60/123/47 72/124/59 71/122/58 
f 60/123/47 39/101/14 62/104/49 72/124/59 
f 62/125/49 61/126/48 73/127/60 74/128/61 
f 61/126/48 63/129/50 75/130/62 73/127/60 
f 63/129/50 64/131/51 76/132/63 75/130/62 
f 64/131/51 65/133/52 77/134/64 76/132/63 
f 65/133/52 66/135/53 78/136/65 77/134/64 
f 66/137/53 67/138/54 79/139/66 78/140/65 
f 67/138/54 68/141/55 80/142/67 79/139/66 
f 68/141/55 69/143/56 81/144/68 80/142/67 
f 69/143/56 70/145/57 82/146/69 81/144/68 
f 70/145/57 71/147/58 83/148/70 82/146/69 
f 71/147/58 72/149/59 84/150/71 83/148/70 
f 72/149/59 62/125/49 74/128/61 84/150/71 
f 74/151/61 73/152/60 85/153/72 86/154/73 
f 73/152/60 75/155/62 87/156/74 85/153/72 
f 75/155/62 76/157/63 88/158/75 87/156/74 
f 76/157/63 77/159/64 89/160/76 88/158/75 
f 77/159/64 78/161/65 90/162/77 89/160/76 
f 78/161/65 79/163/66 91/164/78 90/162/77 
f 79/163/66 80/165/67 92/166/79 91/164/78 
f 80/165/67 81/167/68 93/168/80 92/166/79 
f 81/167/68 82/169/69 94/170/81 93/168/80 
f 82/169/69 83/171/70 95/172/82 94/170/81 
f 83/171/70 84/173/71 96/174/83 95/172/82 
f 84/173/71 74/151/61 86/154/73 96/174/83 
f 86/175/73 85/176/72 97/177/27 98/178/26 
f 85/176/72 87/179/74 99/180/28 97/177/27 
f 87/179/74 88/181/75 100/182/16 99/180/28 
f 88/181/75 89/183/76 101/184/29 100/182/16 
f 89/183/76 90/185/77 102/186/30 101/184/29 
f 90/185/77 91/187/78 103/188/84 102/186/30 
f 91/187/78 92/189/79 104/190/31 103/188/84 
f 92/191/79 93/192/80 105/193/32 104/194/31 
f 93/192/80 94/195/81 106/196/22 105/193/32 
f 94/195/81 95/197/82 107/198/23 106/196/22 
f 95/197/82 96/199/83 108/200/25 107/198/23 
f 96/199/83 86/175/73 98/178/26 108/200/25 
f 98/201/26 97/202/27 109/203/72 110/204/73 
f 97/202/27 99/205/28 111/206/74 109/203/72 
f 99/205/28 100/207/16 112/208/75 111/206/74 
f 100/207/16 101/209/29 113/210/76 112/208/75 
f 101/209/29 102/211/30 114/212/77 113/210/76 
f 102/211/30 103/213/84 115/214/85 114/212/77 
f 103/213/84 104/215/31 116/216/86 115/214/85 
f 104/215/31 105/217/32 117/218/80 116/216/86 
f 105/217/32 106/219/22 118/220/87 117/218/80 
f 106/219/22 107/221/23 119/222/88 118/220/87 
f 107/221/23 108/223/25 120/224/83 119/222/88 
f 108/223/25 98/201/26 110/204/73 120/224/83 
f 110/225/73 109/226/72 27/227/27 26/228/26 
f 109/229/72 111/230/74 28/231/28 27/232/27 
f 111/230/74 112/233/75 29/234/16 28/231/28 
f 112/235/75 113/236/76 30/237/29 29/238/16 
f 113/239/76 114/240/77 31/241/30 30/242/29 
f 114/240/77 115/243/85 32/244/19 31/241/30 
f 115/243/85 116/245/86 33/246/31 32/244/19 
f 116/245/86 117/247/80 34/248/32 33/246/31 
f 117/249/80 118/250/87 35/251/33 34/252/32 
f 118/250/87 119/253/88 36/254/34 35/251/33 
f 119/253/88 120/255/83 25/256/25 36/254/34 
f 120/257/83 110/225/73 26/228/26 25/258/25 
# 100 polygons

