# 3ds Max Wavefront OBJ Exporter v0.99 - (c)2007 guruware
# File Created: 03.05.2026 21:11:46

mtllib ??.mtl

#
# object Cylinder006
#

v  2.7095 70.7828 -18.1736
v  2.0540 70.8468 -17.9097
v  1.3985 70.7828 -18.1736
v  1.1269 70.6284 -18.8107
v  1.3985 70.4741 -19.4478
v  2.0540 70.4101 -19.7117
v  2.7095 70.4741 -19.4478
v  2.9811 70.6284 -18.8107
v  3.2281 70.9216 -18.8817
v  2.8842 70.7261 -19.6886
v  2.8842 72.2447 -20.0566
v  3.2281 72.4402 -19.2497
v  2.0540 70.6451 -20.0229
v  2.0540 72.1638 -20.3908
v  1.2237 70.7261 -19.6886
v  1.2237 72.2447 -20.0566
v  0.8798 70.9216 -18.8817
v  0.8798 72.4402 -19.2497
v  1.2237 71.1171 -18.0748
v  1.2237 72.6357 -18.4428
v  2.0540 71.1981 -17.7406
v  2.0540 72.7167 -18.1085
v  2.8842 71.1171 -18.0748
v  2.8842 72.6357 -18.4428
v  2.8842 97.6742 -24.5093
v  2.0540 99.4971 -25.9174
v  2.0540 96.3852 -23.8431
v  2.0540 95.8322 -26.1254
v  1.2237 97.2832 -26.1231
v  3.2281 96.1087 -24.9843
v  2.8842 97.2832 -26.1231
v  1.2237 97.6742 -24.5093
v  0.8798 96.1087 -24.9843
v  3.0310 72.2102 -20.1992
v  3.0310 72.6301 -20.3010
v  3.4357 72.8602 -19.3514
v  3.4357 72.4402 -19.2497
v  2.0540 72.1149 -20.5925
v  2.0540 72.5348 -20.6943
v  1.0770 72.2102 -20.1992
v  1.0770 72.6301 -20.3010
v  0.6723 72.4402 -19.2497
v  0.6723 72.8602 -19.3514
v  1.0770 72.6703 -18.3001
v  1.0770 73.0902 -18.4019
v  2.0540 72.7656 -17.9068
v  2.0540 73.1855 -18.0086
v  3.0310 72.6703 -18.3001
v  3.0310 73.0902 -18.4019
v  2.8842 72.6647 -20.1583
v  3.2281 72.8602 -19.3514
v  2.0540 72.5837 -20.4926
v  1.2237 72.6647 -20.1583
v  0.8798 72.8602 -19.3514
v  1.2237 73.0557 -18.5445
v  2.0540 73.1367 -18.2103
v  2.8842 73.0557 -18.5445
# 57 vertices

vn 0.3585 -0.7533 0.5514
vn -0.0000 -0.7183 0.6957
vn -0.3585 -0.7533 0.5514
vn -0.5070 -0.8377 0.2030
vn -0.3585 -0.9221 -0.1455
vn 0.0000 -0.9571 -0.2898
vn 0.3585 -0.9221 -0.1455
vn 0.5070 -0.8377 0.2030
vn 0.9498 -0.3042 0.0737
vn 0.6716 -0.4623 -0.5790
vn 0.4203 -0.8805 -0.2191
vn 0.5944 -0.7816 0.1894
vn -0.0000 -0.5278 -0.8493
vn -0.0000 -0.9215 -0.3883
vn -0.6716 -0.4623 -0.5790
vn -0.4203 -0.8805 -0.2191
vn -0.9498 -0.3042 0.0737
vn -0.5944 -0.7816 0.1894
vn -0.6716 -0.1461 0.7264
vn -0.4203 -0.6826 0.5978
vn -0.0000 -0.0806 0.9968
vn -0.0000 -0.6416 0.7670
vn 0.6716 -0.1461 0.7264
vn 0.4203 -0.6826 0.5978
vn 0.6366 0.5310 0.5593
vn -0.0000 0.9631 -0.2690
vn 0.0000 0.2955 0.9554
vn -0.0000 -0.1842 -0.9829
vn -0.6791 0.1889 -0.7094
vn 0.9984 0.0557 -0.0136
vn 0.6791 0.1889 -0.7094
vn -0.6366 0.5310 0.5593
vn -0.9984 0.0557 -0.0136
vn 0.5490 -0.7418 -0.3851
vn 0.5490 0.4833 -0.6820
vn 0.7764 0.6125 -0.1484
vn 0.7764 -0.6125 0.1484
vn 0.0000 -0.7954 -0.6061
vn 0.0000 0.4297 -0.9030
vn -0.5490 -0.7418 -0.3851
vn -0.5490 0.4833 -0.6820
vn -0.7763 -0.6126 0.1484
vn -0.7763 0.6126 -0.1485
vn -0.5489 -0.4833 0.6820
vn -0.5489 0.7419 0.3851
vn -0.0000 -0.4297 0.9030
vn -0.0000 0.7954 0.6061
vn 0.5490 -0.4833 0.6820
vn 0.5490 0.7418 0.3851
vn 0.4203 0.6826 -0.5978
vn 0.5944 0.7816 -0.1894
vn -0.0000 0.6416 -0.7670
vn -0.4203 0.6826 -0.5978
vn -0.5944 0.7816 -0.1894
vn -0.4203 0.8805 0.2191
vn -0.0000 0.9215 0.3883
vn 0.4203 0.8805 0.2191
# 57 vertex normals

vt 0.6049 0.1165 0.0000
vt 0.6047 0.0896 0.0000
vt 0.6235 0.0704 0.0000
vt 0.6504 0.0701 0.0000
vt 0.6697 0.0890 0.0000
vt 0.6699 0.1159 0.0000
vt 0.6510 0.1351 0.0000
vt 0.6241 0.1354 0.0000
vt 0.1250 0.8490 0.0000
vt 0.0000 0.8490 0.0000
vt 0.0000 0.6137 0.0000
vt 0.1250 0.6137 0.0000
vt 1.0000 0.8490 0.0000
vt 0.8750 0.8490 0.0000
vt 0.8750 0.6137 0.0000
vt 1.0000 0.6137 0.0000
vt 0.7500 0.8490 0.0000
vt 0.7500 0.6137 0.0000
vt 0.6250 0.8490 0.0000
vt 0.6250 0.6137 0.0000
vt 0.5000 0.8490 0.0000
vt 0.5000 0.6137 0.0000
vt 0.3750 0.8490 0.0000
vt 0.3750 0.6137 0.0000
vt 0.2500 0.8490 0.0000
vt 0.2500 0.6137 0.0000
vt 0.0992 0.1462 0.0000
vt 0.1229 0.0968 0.0000
vt 0.1531 0.1834 0.0000
vt 0.0932 0.0117 0.0000
vt 0.1461 0.0491 0.0000
vt 0.0366 0.1257 0.0000
vt 0.0750 0.0739 0.0000
vt 0.1722 0.1207 0.0000
vt 0.2083 0.0657 0.0000
vt 0.7500 0.5316 0.0000
vt 0.7500 0.5869 0.0000
vt 0.6250 0.5869 0.0000
vt 0.6250 0.5316 0.0000
vt 0.8750 0.5316 0.0000
vt 0.8750 0.5869 0.0000
vt 1.0000 0.5316 0.0000
vt 1.0000 0.5869 0.0000
vt 0.1250 0.5316 0.0000
vt 0.1250 0.5869 0.0000
vt 0.0000 0.5869 0.0000
vt 0.0000 0.5316 0.0000
vt 0.2500 0.5316 0.0000
vt 0.2500 0.5869 0.0000
vt 0.3750 0.5316 0.0000
vt 0.3750 0.5869 0.0000
vt 0.5000 0.5316 0.0000
vt 0.5000 0.5869 0.0000
vt 0.0204 0.3625 0.0000
vt 0.9796 0.3625 0.0000
vt 0.9262 0.3939 0.0000
vt 0.0204 0.3939 0.0000
vt 0.0204 0.3303 0.0000
vt 0.9262 0.3303 0.0000
vt 0.9796 0.3617 0.0000
vt 0.0204 0.3617 0.0000
vt 0.0204 0.2980 0.0000
vt 0.9796 0.2980 0.0000
vt 0.9262 0.3295 0.0000
vt 0.0204 0.3295 0.0000
vt 0.0204 0.2014 0.0000
vt 0.9262 0.2014 0.0000
vt 0.9796 0.2328 0.0000
vt 0.0204 0.2328 0.0000
vt 0.0204 0.2658 0.0000
vt 0.9796 0.2658 0.0000
vt 0.9262 0.2973 0.0000
vt 0.0204 0.2973 0.0000
vt 0.0204 0.3947 0.0000
vt 0.9262 0.3947 0.0000
vt 0.9796 0.4262 0.0000
vt 0.0204 0.4262 0.0000
vt 0.0204 0.4269 0.0000
vt 0.9796 0.4269 0.0000
vt 0.9262 0.4584 0.0000
vt 0.0204 0.4584 0.0000
vt 0.0204 0.2336 0.0000
vt 0.9262 0.2336 0.0000
vt 0.9796 0.2650 0.0000
vt 0.0204 0.2650 0.0000
vt 0.5236 0.0486 0.0000
vt 0.4895 0.0489 0.0000
vt 0.4864 0.0417 0.0000
vt 0.5265 0.0413 0.0000
vt 0.4656 0.0732 0.0000
vt 0.4583 0.0703 0.0000
vt 0.4659 0.1073 0.0000
vt 0.4586 0.1104 0.0000
vt 0.4902 0.1312 0.0000
vt 0.4872 0.1385 0.0000
vt 0.5243 0.1309 0.0000
vt 0.5274 0.1382 0.0000
vt 0.5482 0.1066 0.0000
vt 0.5555 0.1096 0.0000
vt 0.5479 0.0725 0.0000
vt 0.5551 0.0694 0.0000
vt 0.3022 0.1162 0.0000
vt 0.3265 0.1401 0.0000
vt 0.3236 0.1474 0.0000
vt 0.2949 0.1193 0.0000
vt 0.3606 0.1398 0.0000
vt 0.3637 0.1470 0.0000
vt 0.3845 0.1155 0.0000
vt 0.3918 0.1184 0.0000
vt 0.3842 0.0814 0.0000
vt 0.3915 0.0783 0.0000
vt 0.3599 0.0575 0.0000
vt 0.3628 0.0502 0.0000
vt 0.3258 0.0578 0.0000
vt 0.3227 0.0505 0.0000
vt 0.3019 0.0821 0.0000
vt 0.2946 0.0791 0.0000
vt 0.1250 0.8944 0.0000
vt 0.0263 0.8944 0.0000
vt 0.2500 0.8944 0.0000
vt 0.3750 0.8944 0.0000
vt 0.5000 0.8944 0.0000
vt 0.6250 0.8944 0.0000
vt 0.7500 0.8944 0.0000
vt 0.8750 0.8944 0.0000
vt 0.9737 0.8944 0.0000
# 126 texture coords

o Cylinder006
g Cylinder006
usemtl wire_197224162
s 1
f 1/1/1 2/2/2 3/3/3 4/4/4 5/5/5 6/6/6 7/7/7 8/8/8 
s 2
f 9/9/9 10/10/10 11/11/11 12/12/12 
f 10/13/10 13/14/13 14/15/14 11/16/11 
f 13/14/13 15/17/15 16/18/16 14/15/14 
f 15/17/15 17/19/17 18/20/18 16/18/16 
f 17/19/17 19/21/19 20/22/20 18/20/18 
f 19/21/19 21/23/21 22/24/22 20/22/20 
f 21/23/21 23/25/23 24/26/24 22/24/22 
f 23/25/23 9/9/9 12/12/12 24/26/24 
s 1
f 25/27/25 26/28/26 27/29/27 
f 28/30/28 29/31/29 26/28/26 
f 30/32/30 31/33/31 26/28/26 
f 31/33/31 28/30/28 26/28/26 
f 25/27/25 30/32/30 26/28/26 
f 32/34/32 27/29/27 26/28/26 
f 33/35/33 32/34/32 26/28/26 
f 29/31/29 33/35/33 26/28/26 
f 34/36/34 35/37/35 36/38/36 37/39/37 
f 38/40/38 39/41/39 35/37/35 34/36/34 
f 40/42/40 41/43/41 39/41/39 38/40/38 
f 42/44/42 43/45/43 41/46/41 40/47/40 
f 44/48/44 45/49/45 43/45/43 42/44/42 
f 46/50/46 47/51/47 45/49/45 44/48/44 
f 48/52/48 49/53/49 47/51/47 46/50/46 
f 37/39/37 36/38/36 49/53/49 48/52/48 
f 50/54/50 31/55/31 30/56/30 51/57/51 
f 52/58/52 28/59/28 31/60/31 50/61/50 
f 53/62/53 29/63/29 28/64/28 52/65/52 
f 54/66/54 33/67/33 29/68/29 53/69/53 
f 55/70/55 32/71/32 33/72/33 54/73/54 
f 56/74/56 27/75/27 32/76/32 55/77/55 
f 57/78/57 25/79/25 27/80/27 56/81/56 
f 51/82/51 30/83/30 25/84/25 57/85/57 
s 4
f 12/86/12 11/87/11 34/88/34 37/89/37 
f 11/87/11 14/90/14 38/91/38 34/88/34 
f 14/90/14 16/92/16 40/93/40 38/91/38 
f 16/92/16 18/94/18 42/95/42 40/93/40 
f 18/94/18 20/96/20 44/97/44 42/95/42 
f 20/96/20 22/98/22 46/99/46 44/97/44 
f 22/98/22 24/100/24 48/101/48 46/99/46 
f 24/100/24 12/86/12 37/89/37 48/101/48 
s 2
f 50/102/50 51/103/51 36/104/36 35/105/35 
f 51/103/51 57/106/57 49/107/49 36/104/36 
f 57/106/57 56/108/56 47/109/47 49/107/49 
f 56/108/56 55/110/55 45/111/45 47/109/47 
f 55/110/55 54/112/54 43/113/43 45/111/45 
f 54/112/54 53/114/53 41/115/41 43/113/43 
f 53/114/53 52/116/52 39/117/39 41/115/41 
f 52/116/52 50/102/50 35/105/35 39/117/39 
f 10/10/10 9/9/9 8/118/8 7/119/7 
f 9/9/9 23/25/23 1/120/1 8/118/8 
f 23/25/23 21/23/21 2/121/2 1/120/1 
f 21/23/21 19/21/19 3/122/3 2/121/2 
f 19/21/19 17/19/17 4/123/4 3/122/3 
f 17/19/17 15/17/15 5/124/5 4/123/4 
f 15/17/15 13/14/13 6/125/6 5/124/5 
f 13/14/13 10/13/10 7/126/7 6/125/6 
# 49 polygons - 8 triangles

