# 3ds Max Wavefront OBJ Exporter v0.99 - (c)2007 guruware
# File Created: 03.05.2026 20:47:44

mtllib ?.mtl

#
# object Box003
#

v  -58.8595 67.1806 17.8254
v  -58.8595 67.1806 -24.4054
v  -31.7614 67.1806 -24.4054
v  -31.7614 67.1806 17.8254
v  -58.8595 74.7650 17.8254
v  -31.7614 74.7650 17.8254
v  -31.7614 74.7650 -24.4054
v  -58.8595 74.7650 -24.4054
v  -60.1561 68.3036 17.8254
v  -60.6182 70.9728 17.8254
v  -60.3967 70.9728 -24.4054
v  -60.1561 68.3036 -24.4054
v  -60.1561 73.6419 17.8254
v  -60.1561 73.6419 -24.4054
v  -32.3885 68.1782 17.1984
v  -32.3885 73.7674 17.1984
v  -58.4875 73.7674 17.1984
v  -59.2338 73.1209 17.1984
v  -59.6057 70.9728 17.1984
v  -59.2338 68.8246 17.1984
v  -58.4875 68.1782 17.1984
v  -32.3885 68.1782 -23.7783
v  -32.3885 73.7674 -23.7783
v  -58.4875 68.1782 -23.7783
v  -59.1986 68.7942 -23.7783
v  -59.3950 70.9728 -23.7783
v  -59.1986 73.1514 -23.7783
v  -58.4875 73.7674 -23.7783
v  -58.4875 68.1782 -24.4054
v  -31.7614 68.1782 -24.4054
v  -59.1986 68.7942 -24.4054
v  -59.3950 70.9728 -24.4054
v  -59.1986 73.1514 -24.4054
v  -58.4875 73.7674 -24.4054
v  -31.7614 73.7674 -24.4054
v  -31.7614 73.7674 17.8254
v  -58.4875 73.7674 17.8254
v  -59.2338 73.1209 17.8254
v  -59.6057 70.9728 17.8254
v  -59.2338 68.8246 17.8254
v  -58.4875 68.1782 17.8254
v  -31.7614 68.1782 17.8254
# 42 vertices

vn -0.2695 -0.7228 0.6363
vn -0.2695 -0.7228 -0.6363
vn 0.5774 -0.5774 -0.5774
vn 0.5774 -0.5774 0.5774
vn -0.2695 0.7228 0.6363
vn 0.5774 0.5774 0.5774
vn 0.5774 0.5774 -0.5774
vn -0.2695 0.7228 -0.6363
vn -0.6699 -0.3784 0.6387
vn -0.7435 0.0000 0.6687
vn -0.7244 0.0000 -0.6893
vn -0.6899 -0.3534 -0.6318
vn -0.6700 0.3784 0.6387
vn -0.6899 0.3534 -0.6318
vn 0.3015 0.9045 0.3015
vn 0.3015 -0.9045 0.3015
vn 0.2695 -0.7228 0.6363
vn 0.6700 -0.3784 0.6387
vn 0.7418 -0.0000 0.6707
vn 0.6700 0.3784 0.6387
vn 0.2695 0.7228 0.6363
vn 0.3015 0.9045 -0.3015
vn 0.3015 -0.9045 -0.3015
vn 0.2695 0.7228 -0.6363
vn 0.6899 0.3534 -0.6318
vn 0.7262 -0.0000 -0.6874
vn 0.6899 -0.3534 -0.6318
vn 0.2695 -0.7228 -0.6363
vn 0.2120 0.5686 -0.7948
vn 0.5319 0.2725 -0.8018
vn 0.6857 -0.0000 -0.7279
vn 0.5319 -0.2724 -0.8018
vn 0.2120 -0.5686 -0.7949
vn 0.2120 -0.5686 0.7948
vn 0.5325 -0.3008 0.7911
vn 0.6642 -0.0000 0.7476
vn 0.5325 0.3008 0.7911
vn 0.2120 0.5686 0.7948
# 38 vertex normals

vt 0.3501 0.4173 0.0000
vt 0.3501 0.0274 0.0000
vt 0.6004 0.0274 0.0000
vt 0.6004 0.4173 0.0000
vt 0.2769 0.4173 0.0000
vt 0.0267 0.4173 0.0000
vt 0.0267 0.0274 0.0000
vt 0.2769 0.0274 0.0000
vt 0.3382 0.4173 0.0000
vt 0.3135 0.4173 0.0000
vt 0.3135 0.0274 0.0000
vt 0.3382 0.0274 0.0000
vt 0.2889 0.4173 0.0000
vt 0.2889 0.0274 0.0000
vt 0.7950 0.0274 0.0000
vt 0.8463 0.0274 0.0000
vt 0.8463 0.2666 0.0000
vt 0.8403 0.2735 0.0000
vt 0.8206 0.2769 0.0000
vt 0.8009 0.2735 0.0000
vt 0.7950 0.2666 0.0000
vt 0.6526 0.4030 0.0000
vt 0.6014 0.4030 0.0000
vt 0.6014 0.0274 0.0000
vt 0.6526 0.0274 0.0000
vt 0.7968 0.3055 0.0000
vt 0.8024 0.2990 0.0000
vt 0.8224 0.2972 0.0000
vt 0.8424 0.2990 0.0000
vt 0.8480 0.3055 0.0000
vt 0.8480 0.5448 0.0000
vt 0.7968 0.5448 0.0000
vt 0.7243 0.2899 0.0000
vt 0.7243 0.0414 0.0000
vt 0.7334 0.0449 0.0000
vt 0.7334 0.2899 0.0000
vt 0.7346 0.0296 0.0000
vt 0.7391 0.0383 0.0000
vt 0.7591 0.0273 0.0000
vt 0.7591 0.0365 0.0000
vt 0.7835 0.0296 0.0000
vt 0.7790 0.0383 0.0000
vt 0.7938 0.0414 0.0000
vt 0.7847 0.0449 0.0000
vt 0.7938 0.2899 0.0000
vt 0.7847 0.2899 0.0000
vt 0.8020 0.9727 0.0000
vt 0.4148 0.9727 0.0000
vt 0.4148 0.9635 0.0000
vt 0.8020 0.9635 0.0000
vt 0.7231 0.0274 0.0000
vt 0.7231 0.2758 0.0000
vt 0.7139 0.2724 0.0000
vt 0.7139 0.0274 0.0000
vt 0.7128 0.2877 0.0000
vt 0.7080 0.2792 0.0000
vt 0.6883 0.2919 0.0000
vt 0.6883 0.2826 0.0000
vt 0.6639 0.2877 0.0000
vt 0.6686 0.2792 0.0000
vt 0.6536 0.2758 0.0000
vt 0.6627 0.2724 0.0000
vt 0.6536 0.0274 0.0000
vt 0.6627 0.0274 0.0000
vt 0.0267 0.9635 0.0000
vt 0.4139 0.9635 0.0000
vt 0.4139 0.9727 0.0000
vt 0.0267 0.9727 0.0000
vt 0.5997 0.4182 0.0000
vt 0.5997 0.6639 0.0000
vt 0.5940 0.6639 0.0000
vt 0.5940 0.4240 0.0000
vt 0.5997 0.6705 0.0000
vt 0.5940 0.6705 0.0000
vt 0.5997 0.6906 0.0000
vt 0.5940 0.6906 0.0000
vt 0.5997 0.7103 0.0000
vt 0.5940 0.7103 0.0000
vt 0.5997 0.7169 0.0000
vt 0.5940 0.7169 0.0000
vt 0.5997 0.9626 0.0000
vt 0.5940 0.9568 0.0000
vt 0.2115 0.9626 0.0000
vt 0.2172 0.9568 0.0000
vt 0.2115 0.7169 0.0000
vt 0.2172 0.7169 0.0000
vt 0.2115 0.7100 0.0000
vt 0.2172 0.7100 0.0000
vt 0.2115 0.6900 0.0000
vt 0.2172 0.6900 0.0000
vt 0.2115 0.6711 0.0000
vt 0.2172 0.6711 0.0000
vt 0.2115 0.6708 0.0000
vt 0.2115 0.6639 0.0000
vt 0.2172 0.6639 0.0000
vt 0.2172 0.6708 0.0000
vt 0.2115 0.4182 0.0000
vt 0.2172 0.4240 0.0000
# 98 texture coords

o Box003
g Box003
usemtl wire_209198102
s 2
f 1/1/1 2/2/2 3/3/3 4/4/4 
s 4
f 5/5/5 6/6/6 7/7/7 8/8/8 
s 64
f 9/9/9 10/10/10 11/11/11 12/12/12 
f 13/13/13 5/5/5 8/8/8 14/14/14 
f 10/10/10 13/13/13 14/14/14 11/11/11 
f 12/12/12 2/2/2 1/1/1 9/9/9 
s 1
f 15/15/15 16/16/16 17/17/17 18/18/18 19/19/19 20/20/20 21/21/21 
s 8
f 22/22/22 23/23/23 16/24/16 15/25/15 
s 16
f 24/26/24 25/27/25 26/28/26 27/29/27 28/30/28 23/31/23 22/32/22 
s off
f 3/33/3 2/34/2 29/35/29 30/36/7 
f 2/34/2 12/37/12 31/38/30 29/35/29 
f 12/37/12 11/39/11 32/40/31 31/38/30 
f 11/39/11 14/41/14 33/42/32 32/40/31 
f 14/41/14 8/43/8 34/44/33 33/42/32 
f 8/43/8 7/45/7 35/46/3 34/44/33 
f 7/47/7 6/48/6 36/49/4 35/50/3 
f 6/51/6 5/52/5 37/53/34 36/54/4 
f 5/52/5 13/55/13 38/56/35 37/53/34 
f 13/55/13 10/57/10 39/58/36 38/56/35 
f 10/57/10 9/59/9 40/60/37 39/58/36 
f 9/59/9 1/61/1 41/62/38 40/60/37 
f 1/61/1 4/63/4 42/64/6 41/62/38 
f 4/65/4 3/66/3 30/67/7 42/68/6 
f 30/69/7 29/70/29 24/71/24 22/72/22 
f 29/70/29 31/73/30 25/74/25 24/71/24 
f 31/73/30 32/75/31 26/76/26 25/74/25 
f 32/75/31 33/77/32 27/78/27 26/76/26 
f 33/77/32 34/79/33 28/80/28 27/78/27 
f 34/79/33 35/81/3 23/82/23 28/80/28 
f 35/81/3 36/83/4 16/84/16 23/82/23 
f 36/83/4 37/85/34 17/86/17 16/84/16 
f 37/85/34 38/87/35 18/88/18 17/86/17 
f 38/87/35 39/89/36 19/90/19 18/88/18 
f 39/89/36 40/91/37 20/92/20 19/90/19 
f 40/93/37 41/94/38 21/95/21 20/96/20 
f 41/94/38 42/97/6 15/98/15 21/95/21 
f 42/97/6 30/69/7 22/72/22 15/98/15 
# 37 polygons

